<?xml version="1.0" standalone="no"?>
<!DOCTYPE svg PUBLIC "-//W3C//DTD SVG 1.1//EN" "http://www.w3.org/Graphics/SVG/1.1/DTD/svg11.dtd">
<svg width="20mm" height="20mm" viewBox="-4 -10 20 20" xmlns="http://www.w3.org/2000/svg" version="1.1">
<title>OpenSCAD Model</title>
<path d="
M 4,6.5 L 2.5,6.5 L 2.5,5.5 L 1.5,5.5 L 1.88885,-3.05462 L 1.9445,-3.08986
 L 2.08495,-3.18877 L 2.22038,-3.29446 L 2.35046,-3.40667 L 2.47487,-3.52513 L 2.59333,-3.64954 L 2.70554,-3.77962
 L 2.81123,-3.91505 L 2.91014,-4.0555 L 3.00205,-4.20064 L 3.08672,-4.35011 L 3.16396,-4.50356 L 3.23358,-4.66061
 L 3.2954,-4.82088 L 3.34929,-4.984 L 3.39511,-5.14957 L 3.43275,-5.31718 L 3.46212,-5.48644 L 3.48315,-5.65694
 L 3.49578,-5.82826 L 3.5,-6 L 3.49578,-6.17174 L 3.48315,-6.34306 L 3.46212,-6.51356 L 3.43275,-6.68282
 L 3.39511,-6.85043 L 3.34929,-7.016 L 3.2954,-7.17911 L 3.23358,-7.33939 L 3.16396,-7.49644 L 3.08672,-7.64989
 L 3.00205,-7.79936 L 2.91014,-7.9445 L 2.81123,-8.08495 L 2.70554,-8.22038 L 2.59333,-8.35046 L 2.47487,-8.47487
 L 2.35046,-8.59333 L 2.22038,-8.70554 L 2.08495,-8.81123 L 1.9445,-8.91014 L 1.79936,-9.00205 L 1.64989,-9.08672
 L 1.49644,-9.16396 L 1.33939,-9.23358 L 1.17911,-9.2954 L 1.016,-9.34929 L 0.85043,-9.39511 L 0.682816,-9.43275
 L 0.513556,-9.46212 L 0.34306,-9.48315 L 0.171737,-9.49578 L 0,-9.5 L -0.171737,-9.49578 L -0.34306,-9.48315
 L -0.513556,-9.46212 L -0.682816,-9.43275 L -0.85043,-9.39511 L -1.016,-9.34929 L -1.17911,-9.2954 L -1.33939,-9.23358
 L -1.49644,-9.16396 L -1.64989,-9.08672 L -1.79936,-9.00205 L -1.9445,-8.91014 L -2.08495,-8.81123 L -2.22038,-8.70554
 L -2.35046,-8.59333 L -2.47487,-8.47487 L -2.59333,-8.35046 L -2.70554,-8.22038 L -2.81123,-8.08495 L -2.91014,-7.9445
 L -3.00205,-7.79936 L -3.08672,-7.64989 L -3.16396,-7.49644 L -3.23358,-7.33939 L -3.2954,-7.17911 L -3.34929,-7.016
 L -3.39511,-6.85043 L -3.43275,-6.68282 L -3.46212,-6.51356 L -3.48315,-6.34306 L -3.49578,-6.17174 L -3.5,-6
 L -3.49578,-5.82826 L -3.48315,-5.65694 L -3.46212,-5.48644 L -3.43275,-5.31718 L -3.39511,-5.14957 L -3.34929,-4.984
 L -3.2954,-4.82088 L -3.23358,-4.66061 L -3.16396,-4.50356 L -3.08672,-4.35011 L -3.00205,-4.20064 L -2.91014,-4.0555
 L -2.81123,-3.91505 L -2.70554,-3.77962 L -2.59333,-3.64954 L -2.47487,-3.52513 L -2.35046,-3.40667 L -2.22038,-3.29446
 L -2.08495,-3.18877 L -1.9445,-3.08986 L -1.88885,-3.05462 L -1.5,5.5 L -2.5,5.5 L -2.5,6.5
 L -4,6.5 L -4,9.5 L 4,9.5 z
M 11.0245,2.9994 L 11.049,2.99759 L 11.0734,2.99459 L 11.0975,2.99039 L 11.1215,2.98501 L 11.1451,2.97847
 L 11.1684,2.97077 L 11.1913,2.96194 L 11.2138,2.95199 L 11.2357,2.94096 L 11.2571,2.92886 L 15.2571,0.428864
 L 15.2778,0.415734 L 15.2978,0.401604 L 15.3172,0.386505 L 15.3358,0.370475 L 15.3536,0.353553 L 15.3705,0.335779
 L 15.3865,0.317196 L 15.4016,0.297849 L 15.4157,0.277784 L 15.4289,0.257051 L 15.441,0.235698 L 15.452,0.213778
 L 15.4619,0.191341 L 15.4708,0.168445 L 15.4785,0.145142 L 15.485,0.12149 L 15.4904,0.0975447 L 15.4946,0.0733652
 L 15.4976,0.0490084 L 15.4994,0.0245333 L 15.5,-0 L 15.4994,-0.0245333 L 15.4976,-0.0490084 L 15.4946,-0.0733652
 L 15.4904,-0.0975447 L 15.485,-0.12149 L 15.4785,-0.145142 L 15.4708,-0.168445 L 15.4619,-0.191341 L 15.452,-0.213778
 L 15.441,-0.235698 L 15.4289,-0.257051 L 15.4157,-0.277784 L 15.4016,-0.297849 L 15.3865,-0.317196 L 15.3705,-0.335779
 L 15.3536,-0.353553 L 15.3358,-0.370475 L 15.3172,-0.386505 L 15.2978,-0.401604 L 15.2778,-0.415734 L 15.2571,-0.428864
 L 11.2571,-2.92886 L 11.2357,-2.94096 L 11.2138,-2.95199 L 11.1913,-2.96194 L 11.1684,-2.97077 L 11.1451,-2.97847
 L 11.1215,-2.98501 L 11.0975,-2.99039 L 11.0734,-2.99459 L 11.049,-2.99759 L 11.0245,-2.9994 L 11,-3
 L 10.9755,-2.9994 L 10.951,-2.99759 L 10.9266,-2.99459 L 10.9025,-2.99039 L 10.8785,-2.98501 L 10.8549,-2.97847
 L 10.8316,-2.97077 L 10.8087,-2.96194 L 10.7862,-2.95199 L 10.7643,-2.94096 L 10.7429,-2.92886 L 10.7222,-2.91573
 L 10.7022,-2.9016 L 10.6828,-2.88651 L 10.6642,-2.87047 L 10.6464,-2.85355 L 10.6295,-2.83578 L 10.6135,-2.8172
 L 10.5984,-2.79785 L 10.5843,-2.77778 L 10.5711,-2.75705 L 10.559,-2.7357 L 10.548,-2.71378 L 10.5381,-2.69134
 L 10.5292,-2.66844 L 10.5215,-2.64514 L 10.515,-2.62149 L 10.5096,-2.59754 L 10.5054,-2.57337 L 10.5024,-2.54901
 L 10.5006,-2.52453 L 10.5,-2.5 L 10.5,2.5 L 10.5006,2.52453 L 10.5024,2.54901 L 10.5054,2.57337
 L 10.5096,2.59754 L 10.515,2.62149 L 10.5215,2.64514 L 10.5292,2.66844 L 10.5381,2.69134 L 10.548,2.71378
 L 10.559,2.7357 L 10.5711,2.75705 L 10.5843,2.77778 L 10.5984,2.79785 L 10.6135,2.8172 L 10.6295,2.83578
 L 10.6464,2.85355 L 10.6642,2.87047 L 10.6828,2.88651 L 10.7022,2.9016 L 10.7222,2.91573 L 10.7429,2.92886
 L 10.7643,2.94096 L 10.7862,2.95199 L 10.8087,2.96194 L 10.8316,2.97077 L 10.8549,2.97847 L 10.8785,2.98501
 L 10.9025,2.99039 L 10.9266,2.99459 L 10.951,2.99759 L 10.9755,2.9994 L 11,3 z
" stroke="black" fill="lightgray" stroke-width="0.5"/>
</svg>
