<?xml version="1.0" standalone="no"?>
<!DOCTYPE svg PUBLIC "-//W3C//DTD SVG 1.1//EN" "http://www.w3.org/Graphics/SVG/1.1/DTD/svg11.dtd">
<svg width="8mm" height="26mm" viewBox="-4 -10 8 26" xmlns="http://www.w3.org/2000/svg" version="1.1">
<title>OpenSCAD Model</title>
<path d="
M 4,6.5 L 2.5,6.5 L 2.5,5.5 L 1.5,5.5 L 1.88885,-3.05462 L 1.9445,-3.08986
 L 2.08495,-3.18877 L 2.22038,-3.29446 L 2.35046,-3.40667 L 2.47487,-3.52513 L 2.59333,-3.64954 L 2.70554,-3.77962
 L 2.81123,-3.91505 L 2.91014,-4.0555 L 3.00205,-4.20064 L 3.08672,-4.35011 L 3.16396,-4.50356 L 3.23358,-4.66061
 L 3.2954,-4.82088 L 3.34929,-4.984 L 3.39511,-5.14957 L 3.43275,-5.31718 L 3.46212,-5.48644 L 3.48315,-5.65694
 L 3.49578,-5.82826 L 3.5,-6 L 3.49578,-6.17174 L 3.48315,-6.34306 L 3.46212,-6.51356 L 3.43275,-6.68282
 L 3.39511,-6.85043 L 3.34929,-7.016 L 3.2954,-7.17911 L 3.23358,-7.33939 L 3.16396,-7.49644 L 3.08672,-7.64989
 L 3.00205,-7.79936 L 2.91014,-7.9445 L 2.81123,-8.08495 L 2.70554,-8.22038 L 2.59333,-8.35046 L 2.47487,-8.47487
 L 2.35046,-8.59333 L 2.22038,-8.70554 L 2.08495,-8.81123 L 1.9445,-8.91014 L 1.79936,-9.00205 L 1.64989,-9.08672
 L 1.49644,-9.16396 L 1.33939,-9.23358 L 1.17911,-9.2954 L 1.016,-9.34929 L 0.85043,-9.39511 L 0.682816,-9.43275
 L 0.513556,-9.46212 L 0.34306,-9.48315 L 0.171737,-9.49578 L 0,-9.5 L -0.171737,-9.49578 L -0.34306,-9.48315
 L -0.513556,-9.46212 L -0.682816,-9.43275 L -0.85043,-9.39511 L -1.016,-9.34929 L -1.17911,-9.2954 L -1.33939,-9.23358
 L -1.49644,-9.16396 L -1.64989,-9.08672 L -1.79936,-9.00205 L -1.9445,-8.91014 L -2.08495,-8.81123 L -2.22038,-8.70554
 L -2.35046,-8.59333 L -2.47487,-8.47487 L -2.59333,-8.35046 L -2.70554,-8.22038 L -2.81123,-8.08495 L -2.91014,-7.9445
 L -3.00205,-7.79936 L -3.08672,-7.64989 L -3.16396,-7.49644 L -3.23358,-7.33939 L -3.2954,-7.17911 L -3.34929,-7.016
 L -3.39511,-6.85043 L -3.43275,-6.68282 L -3.46212,-6.51356 L -3.48315,-6.34306 L -3.49578,-6.17174 L -3.5,-6
 L -3.49578,-5.82826 L -3.48315,-5.65694 L -3.46212,-5.48644 L -3.43275,-5.31718 L -3.39511,-5.14957 L -3.34929,-4.984
 L -3.2954,-4.82088 L -3.23358,-4.66061 L -3.16396,-4.50356 L -3.08672,-4.35011 L -3.00205,-4.20064 L -2.91014,-4.0555
 L -2.81123,-3.91505 L -2.70554,-3.77962 L -2.59333,-3.64954 L -2.47487,-3.52513 L -2.35046,-3.40667 L -2.22038,-3.29446
 L -2.08495,-3.18877 L -1.9445,-3.08986 L -1.88885,-3.05462 L -1.5,5.5 L -2.5,5.5 L -2.5,6.5
 L -4,6.5 L -4,9.5 L 4,9.5 z
M 0.0245333,15.4994 L 0.0490084,15.4976 L 0.0733652,15.4946 L 0.0975447,15.4904 L 0.12149,15.485 L 0.145142,15.4785
 L 0.168445,15.4708 L 0.191341,15.4619 L 0.213778,15.452 L 0.235698,15.441 L 0.257051,15.4289 L 0.277784,15.4157
 L 0.297849,15.4016 L 0.317196,15.3865 L 0.335779,15.3705 L 0.353553,15.3536 L 0.370475,15.3358 L 0.386505,15.3172
 L 0.401604,15.2978 L 0.415734,15.2778 L 0.428864,15.2571 L 2.92886,11.2571 L 2.94096,11.2357 L 2.95199,11.2138
 L 2.96194,11.1913 L 2.97077,11.1684 L 2.97847,11.1451 L 2.98501,11.1215 L 2.99039,11.0975 L 2.99459,11.0734
 L 2.99759,11.049 L 2.9994,11.0245 L 3,11 L 2.9994,10.9755 L 2.99759,10.951 L 2.99459,10.9266
 L 2.99039,10.9025 L 2.98501,10.8785 L 2.97847,10.8549 L 2.97077,10.8316 L 2.96194,10.8087 L 2.95199,10.7862
 L 2.94096,10.7643 L 2.92886,10.7429 L 2.91573,10.7222 L 2.9016,10.7022 L 2.88651,10.6828 L 2.87047,10.6642
 L 2.85355,10.6464 L 2.83578,10.6295 L 2.8172,10.6135 L 2.79785,10.5984 L 2.77778,10.5843 L 2.75705,10.5711
 L 2.7357,10.559 L 2.71378,10.548 L 2.69134,10.5381 L 2.66844,10.5292 L 2.64514,10.5215 L 2.62149,10.515
 L 2.59754,10.5096 L 2.57337,10.5054 L 2.54901,10.5024 L 2.52453,10.5006 L 2.5,10.5 L -2.5,10.5
 L -2.52453,10.5006 L -2.54901,10.5024 L -2.57337,10.5054 L -2.59754,10.5096 L -2.62149,10.515 L -2.64514,10.5215
 L -2.66844,10.5292 L -2.69134,10.5381 L -2.71378,10.548 L -2.7357,10.559 L -2.75705,10.5711 L -2.77778,10.5843
 L -2.79785,10.5984 L -2.8172,10.6135 L -2.83578,10.6295 L -2.85355,10.6464 L -2.87047,10.6642 L -2.88651,10.6828
 L -2.9016,10.7022 L -2.91573,10.7222 L -2.92886,10.7429 L -2.94096,10.7643 L -2.95199,10.7862 L -2.96194,10.8087
 L -2.97077,10.8316 L -2.97847,10.8549 L -2.98501,10.8785 L -2.99039,10.9025 L -2.99459,10.9266 L -2.99759,10.951
 L -2.9994,10.9755 L -3,11 L -2.9994,11.0245 L -2.99759,11.049 L -2.99459,11.0734 L -2.99039,11.0975
 L -2.98501,11.1215 L -2.97847,11.1451 L -2.97077,11.1684 L -2.96194,11.1913 L -2.95199,11.2138 L -2.94096,11.2357
 L -2.92886,11.2571 L -0.428864,15.2571 L -0.415734,15.2778 L -0.401604,15.2978 L -0.386505,15.3172 L -0.370475,15.3358
 L -0.353553,15.3536 L -0.335779,15.3705 L -0.317196,15.3865 L -0.297849,15.4016 L -0.277784,15.4157 L -0.257051,15.4289
 L -0.235698,15.441 L -0.213778,15.452 L -0.191341,15.4619 L -0.168445,15.4708 L -0.145142,15.4785 L -0.12149,15.485
 L -0.0975447,15.4904 L -0.0733652,15.4946 L -0.0490084,15.4976 L -0.0245333,15.4994 L 0,15.5 z
" stroke="black" fill="lightgray" stroke-width="0.5"/>
</svg>
