<?xml version="1.0" standalone="no"?>
<!DOCTYPE svg PUBLIC "-//W3C//DTD SVG 1.1//EN" "http://www.w3.org/Graphics/SVG/1.1/DTD/svg11.dtd">
<svg width="28mm" height="24mm" viewBox="-14 -16 28 24" xmlns="http://www.w3.org/2000/svg" version="1.1">
<title>OpenSCAD Model</title>
<path d="
M 0.0245333,-7.5006 L 0.0490084,-7.50241 L 0.0733652,-7.50541 L 0.0975447,-7.50961 L 0.12149,-7.51498 L 0.145142,-7.52153
 L 0.168445,-7.52923 L 0.191341,-7.53806 L 0.213778,-7.54801 L 0.235698,-7.55904 L 0.257051,-7.57114 L 0.277784,-7.58426
 L 0.297849,-7.5984 L 0.317196,-7.61349 L 0.335779,-7.62952 L 0.353553,-7.64645 L 0.370475,-7.66422 L 0.386505,-7.6828
 L 0.401604,-7.70215 L 0.415734,-7.72221 L 0.428864,-7.74295 L 0.44096,-7.7643 L 0.451994,-7.78622 L 0.461939,-7.80866
 L 0.470772,-7.83155 L 0.47847,-7.85486 L 0.485015,-7.87851 L 0.490392,-7.90245 L 0.494588,-7.92663 L 0.497592,-7.95099
 L 0.499397,-7.97547 L 0.5,-8 L 0.5,-15 L 0.499397,-15.0245 L 0.497592,-15.049 L 0.494588,-15.0734
 L 0.490392,-15.0975 L 0.485015,-15.1215 L 0.47847,-15.1451 L 0.470772,-15.1684 L 0.461939,-15.1913 L 0.451994,-15.2138
 L 0.44096,-15.2357 L 0.428864,-15.2571 L 0.415734,-15.2778 L 0.401604,-15.2978 L 0.386505,-15.3172 L 0.370475,-15.3358
 L 0.353553,-15.3536 L 0.335779,-15.3705 L 0.317196,-15.3865 L 0.297849,-15.4016 L 0.277784,-15.4157 L 0.257051,-15.4289
 L 0.235698,-15.441 L 0.213778,-15.452 L 0.191341,-15.4619 L 0.168445,-15.4708 L 0.145142,-15.4785 L 0.12149,-15.485
 L 0.0975447,-15.4904 L 0.0733652,-15.4946 L 0.0490084,-15.4976 L 0.0245333,-15.4994 L 0,-15.5 L -0.0245333,-15.4994
 L -0.0490084,-15.4976 L -0.0733652,-15.4946 L -0.0975447,-15.4904 L -0.12149,-15.485 L -0.145142,-15.4785 L -0.168445,-15.4708
 L -0.191341,-15.4619 L -0.213778,-15.452 L -0.235698,-15.441 L -0.257051,-15.4289 L -0.277784,-15.4157 L -0.297849,-15.4016
 L -0.317196,-15.3865 L -0.335779,-15.3705 L -0.353553,-15.3536 L -0.370475,-15.3358 L -0.386505,-15.3172 L -0.401604,-15.2978
 L -0.415734,-15.2778 L -0.428864,-15.2571 L -0.44096,-15.2357 L -0.451994,-15.2138 L -0.461939,-15.1913 L -0.470772,-15.1684
 L -0.47847,-15.1451 L -0.485015,-15.1215 L -0.490392,-15.0975 L -0.494588,-15.0734 L -0.497592,-15.049 L -0.499397,-15.0245
 L -0.5,-15 L -0.5,-8 L -0.499397,-7.97547 L -0.497592,-7.95099 L -0.494588,-7.92663 L -0.490392,-7.90245
 L -0.485015,-7.87851 L -0.47847,-7.85486 L -0.470772,-7.83155 L -0.461939,-7.80866 L -0.451994,-7.78622 L -0.44096,-7.7643
 L -0.428864,-7.74295 L -0.415734,-7.72221 L -0.401604,-7.70215 L -0.386505,-7.6828 L -0.370475,-7.66422 L -0.353553,-7.64645
 L -0.335779,-7.62952 L -0.317196,-7.61349 L -0.297849,-7.5984 L -0.277784,-7.58426 L -0.257051,-7.57114 L -0.235698,-7.55904
 L -0.213778,-7.54801 L -0.191341,-7.53806 L -0.168445,-7.52923 L -0.145142,-7.52153 L -0.12149,-7.51498 L -0.0975447,-7.50961
 L -0.0733652,-7.50541 L -0.0490084,-7.50241 L -0.0245333,-7.5006 L 0,-7.5 z
M 4.0327,-6.42927 L 4.05714,-6.43148 L 4.08145,-6.43488 L 4.10556,-6.43947 L 4.12941,-6.44524 L 4.15295,-6.45217
 L 4.17612,-6.46025 L 4.19887,-6.46946 L 4.22114,-6.47977 L 4.24288,-6.49116 L 4.26403,-6.5036 L 4.28455,-6.51707
 L 4.30438,-6.53153 L 4.32348,-6.54694 L 4.3418,-6.56327 L 4.35929,-6.58048 L 4.37592,-6.59853 L 4.39164,-6.61737
 L 4.40642,-6.63696 L 4.42022,-6.65726 L 4.43301,-6.6782 L 7.93301,-12.7404 L 7.94476,-12.7619 L 7.95543,-12.784
 L 7.96501,-12.8066 L 7.97346,-12.8297 L 7.98078,-12.8531 L 7.98694,-12.8768 L 7.99192,-12.9009 L 7.99572,-12.9251
 L 7.99833,-12.9495 L 7.99973,-12.974 L 7.99993,-12.9986 L 7.99893,-13.0231 L 7.99672,-13.0475 L 7.99332,-13.0718
 L 7.98873,-13.0959 L 7.98296,-13.1198 L 7.97603,-13.1433 L 7.96795,-13.1665 L 7.95875,-13.1893 L 7.94844,-13.2115
 L 7.93705,-13.2333 L 7.9246,-13.2544 L 7.91113,-13.2749 L 7.89668,-13.2948 L 7.88126,-13.3139 L 7.86493,-13.3322
 L 7.84772,-13.3497 L 7.82967,-13.3663 L 7.81083,-13.382 L 7.79124,-13.3968 L 7.77095,-13.4106 L 7.75,-13.4234
 L 7.72845,-13.4351 L 7.70635,-13.4458 L 7.68376,-13.4554 L 7.66072,-13.4638 L 7.63729,-13.4712 L 7.61354,-13.4773
 L 7.58951,-13.4823 L 7.56526,-13.4861 L 7.54086,-13.4887 L 7.51636,-13.4901 L 7.49182,-13.4903 L 7.4673,-13.4893
 L 7.44286,-13.4871 L 7.41855,-13.4837 L 7.39444,-13.4791 L 7.37059,-13.4733 L 7.34705,-13.4664 L 7.32387,-13.4583
 L 7.30113,-13.4491 L 7.27886,-13.4388 L 7.25712,-13.4274 L 7.23597,-13.415 L 7.21545,-13.4015 L 7.19562,-13.3871
 L 7.17652,-13.3716 L 7.1582,-13.3553 L 7.14071,-13.3381 L 7.12408,-13.3201 L 7.10836,-13.3012 L 7.09358,-13.2816
 L 7.07977,-13.2613 L 7.06699,-13.2404 L 3.56699,-7.1782 L 3.55524,-7.15665 L 3.54457,-7.13456 L 3.53499,-7.11196
 L 3.52653,-7.08892 L 3.51922,-7.0655 L 3.51306,-7.04174 L 3.50808,-7.01771 L 3.50428,-6.99347 L 3.50167,-6.96906
 L 3.50027,-6.94456 L 3.50007,-6.92002 L 3.50107,-6.8955 L 3.50328,-6.87106 L 3.50668,-6.84676 L 3.51127,-6.82265
 L 3.51704,-6.79879 L 3.52397,-6.77525 L 3.53205,-6.75208 L 3.54125,-6.72933 L 3.55156,-6.70706 L 3.56295,-6.68532
 L 3.5754,-6.66417 L 3.58887,-6.64365 L 3.60332,-6.62382 L 3.61874,-6.60472 L 3.63507,-6.58641 L 3.65228,-6.56891
 L 3.67033,-6.55228 L 3.68917,-6.53656 L 3.70876,-6.52178 L 3.72905,-6.50798 L 3.75,-6.49519 L 3.77155,-6.48345
 L 3.79365,-6.47277 L 3.81624,-6.46319 L 3.83928,-6.45474 L 3.86271,-6.44742 L 3.88646,-6.44126 L 3.91049,-6.43628
 L 3.93474,-6.43248 L 3.95914,-6.42988 L 3.98364,-6.42847 L 4.00818,-6.42827 z
M -3.98364,-6.42847 L -3.95914,-6.42988 L -3.93474,-6.43248 L -3.91049,-6.43628 L -3.88646,-6.44126 L -3.86271,-6.44742
 L -3.83928,-6.45474 L -3.81624,-6.46319 L -3.79365,-6.47277 L -3.77155,-6.48345 L -3.75,-6.49519 L -3.72905,-6.50798
 L -3.70876,-6.52178 L -3.68917,-6.53656 L -3.67033,-6.55228 L -3.65228,-6.56891 L -3.63507,-6.58641 L -3.61874,-6.60472
 L -3.60332,-6.62382 L -3.58887,-6.64365 L -3.5754,-6.66417 L -3.56295,-6.68532 L -3.55156,-6.70706 L -3.54125,-6.72933
 L -3.53205,-6.75208 L -3.52397,-6.77525 L -3.51704,-6.79879 L -3.51127,-6.82265 L -3.50668,-6.84676 L -3.50328,-6.87106
 L -3.50107,-6.8955 L -3.50007,-6.92002 L -3.50027,-6.94456 L -3.50167,-6.96906 L -3.50428,-6.99347 L -3.50808,-7.01771
 L -3.51306,-7.04174 L -3.51922,-7.0655 L -3.52653,-7.08892 L -3.53499,-7.11196 L -3.54457,-7.13456 L -3.55524,-7.15665
 L -3.56699,-7.1782 L -7.06699,-13.2404 L -7.07977,-13.2613 L -7.09358,-13.2816 L -7.10836,-13.3012 L -7.12408,-13.3201
 L -7.14071,-13.3381 L -7.1582,-13.3553 L -7.17652,-13.3716 L -7.19562,-13.3871 L -7.21545,-13.4015 L -7.23597,-13.415
 L -7.25712,-13.4274 L -7.27886,-13.4388 L -7.30113,-13.4491 L -7.32387,-13.4583 L -7.34705,-13.4664 L -7.37059,-13.4733
 L -7.39444,-13.4791 L -7.41855,-13.4837 L -7.44286,-13.4871 L -7.4673,-13.4893 L -7.49182,-13.4903 L -7.51636,-13.4901
 L -7.54086,-13.4887 L -7.56526,-13.4861 L -7.58951,-13.4823 L -7.61354,-13.4773 L -7.63729,-13.4712 L -7.66072,-13.4638
 L -7.68376,-13.4554 L -7.70635,-13.4458 L -7.72845,-13.4351 L -7.75,-13.4234 L -7.77095,-13.4106 L -7.79124,-13.3968
 L -7.81083,-13.382 L -7.82967,-13.3663 L -7.84772,-13.3497 L -7.86493,-13.3322 L -7.88126,-13.3139 L -7.89668,-13.2948
 L -7.91113,-13.2749 L -7.9246,-13.2544 L -7.93705,-13.2333 L -7.94844,-13.2115 L -7.95875,-13.1893 L -7.96795,-13.1665
 L -7.97603,-13.1433 L -7.98296,-13.1198 L -7.98873,-13.0959 L -7.99332,-13.0718 L -7.99672,-13.0475 L -7.99893,-13.0231
 L -7.99993,-12.9986 L -7.99973,-12.974 L -7.99833,-12.9495 L -7.99572,-12.9251 L -7.99192,-12.9009 L -7.98694,-12.8768
 L -7.98078,-12.8531 L -7.97346,-12.8297 L -7.96501,-12.8066 L -7.95543,-12.784 L -7.94476,-12.7619 L -7.93301,-12.7404
 L -4.43301,-6.6782 L -4.42022,-6.65726 L -4.40642,-6.63696 L -4.39164,-6.61737 L -4.37592,-6.59853 L -4.35929,-6.58048
 L -4.3418,-6.56327 L -4.32348,-6.54694 L -4.30438,-6.53153 L -4.28455,-6.51707 L -4.26403,-6.5036 L -4.24288,-6.49116
 L -4.22114,-6.47977 L -4.19887,-6.46946 L -4.17612,-6.46025 L -4.15295,-6.45217 L -4.12941,-6.44524 L -4.10556,-6.43947
 L -4.08145,-6.43488 L -4.05714,-6.43148 L -4.0327,-6.42927 L -4.00818,-6.42827 z
M 6.94456,-3.50027 L 6.96906,-3.50167 L 6.99347,-3.50428 L 7.01771,-3.50808 L 7.04174,-3.51306 L 7.0655,-3.51922
 L 7.08892,-3.52653 L 7.11196,-3.53499 L 7.13456,-3.54457 L 7.15665,-3.55524 L 7.1782,-3.56699 L 13.2404,-7.06699
 L 13.2613,-7.07977 L 13.2816,-7.09358 L 13.3012,-7.10836 L 13.3201,-7.12408 L 13.3381,-7.14071 L 13.3553,-7.1582
 L 13.3716,-7.17652 L 13.3871,-7.19562 L 13.4015,-7.21545 L 13.415,-7.23597 L 13.4274,-7.25712 L 13.4388,-7.27886
 L 13.4491,-7.30113 L 13.4583,-7.32387 L 13.4664,-7.34705 L 13.4733,-7.37059 L 13.4791,-7.39444 L 13.4837,-7.41855
 L 13.4871,-7.44286 L 13.4893,-7.4673 L 13.4903,-7.49182 L 13.4901,-7.51636 L 13.4887,-7.54086 L 13.4861,-7.56526
 L 13.4823,-7.58951 L 13.4773,-7.61354 L 13.4712,-7.63729 L 13.4638,-7.66072 L 13.4554,-7.68376 L 13.4458,-7.70635
 L 13.4351,-7.72845 L 13.4234,-7.75 L 13.4106,-7.77095 L 13.3968,-7.79124 L 13.382,-7.81083 L 13.3663,-7.82967
 L 13.3497,-7.84772 L 13.3322,-7.86493 L 13.3139,-7.88126 L 13.2948,-7.89668 L 13.2749,-7.91113 L 13.2544,-7.9246
 L 13.2333,-7.93705 L 13.2115,-7.94844 L 13.1893,-7.95875 L 13.1665,-7.96795 L 13.1433,-7.97603 L 13.1198,-7.98296
 L 13.0959,-7.98873 L 13.0718,-7.99332 L 13.0475,-7.99672 L 13.0231,-7.99893 L 12.9986,-7.99993 L 12.974,-7.99973
 L 12.9495,-7.99833 L 12.9251,-7.99572 L 12.9009,-7.99192 L 12.8768,-7.98694 L 12.8531,-7.98078 L 12.8297,-7.97346
 L 12.8066,-7.96501 L 12.784,-7.95543 L 12.7619,-7.94476 L 12.7404,-7.93301 L 6.6782,-4.43301 L 6.65726,-4.42022
 L 6.63696,-4.40642 L 6.61737,-4.39164 L 6.59853,-4.37592 L 6.58048,-4.35929 L 6.56327,-4.3418 L 6.54694,-4.32348
 L 6.53153,-4.30438 L 6.51707,-4.28455 L 6.5036,-4.26403 L 6.49116,-4.24288 L 6.47977,-4.22114 L 6.46946,-4.19887
 L 6.46025,-4.17612 L 6.45217,-4.15295 L 6.44524,-4.12941 L 6.43947,-4.10556 L 6.43488,-4.08145 L 6.43148,-4.05714
 L 6.42927,-4.0327 L 6.42827,-4.00818 L 6.42847,-3.98364 L 6.42988,-3.95914 L 6.43248,-3.93474 L 6.43628,-3.91049
 L 6.44126,-3.88646 L 6.44742,-3.86271 L 6.45474,-3.83928 L 6.46319,-3.81624 L 6.47277,-3.79365 L 6.48345,-3.77155
 L 6.49519,-3.75 L 6.50798,-3.72905 L 6.52178,-3.70876 L 6.53656,-3.68917 L 6.55228,-3.67033 L 6.56891,-3.65228
 L 6.58641,-3.63507 L 6.60472,-3.61874 L 6.62382,-3.60332 L 6.64365,-3.58887 L 6.66417,-3.5754 L 6.68532,-3.56295
 L 6.70706,-3.55156 L 6.72933,-3.54125 L 6.75208,-3.53205 L 6.77525,-3.52397 L 6.79879,-3.51704 L 6.82265,-3.51127
 L 6.84676,-3.50668 L 6.87106,-3.50328 L 6.8955,-3.50107 L 6.92002,-3.50007 z
M -6.8955,-3.50107 L -6.87106,-3.50328 L -6.84676,-3.50668 L -6.82265,-3.51127 L -6.79879,-3.51704 L -6.77525,-3.52397
 L -6.75208,-3.53205 L -6.72933,-3.54125 L -6.70706,-3.55156 L -6.68532,-3.56295 L -6.66417,-3.5754 L -6.64365,-3.58887
 L -6.62382,-3.60332 L -6.60472,-3.61874 L -6.58641,-3.63507 L -6.56891,-3.65228 L -6.55228,-3.67033 L -6.53656,-3.68917
 L -6.52178,-3.70876 L -6.50798,-3.72905 L -6.49519,-3.75 L -6.48345,-3.77155 L -6.47277,-3.79365 L -6.46319,-3.81624
 L -6.45474,-3.83928 L -6.44742,-3.86271 L -6.44126,-3.88646 L -6.43628,-3.91049 L -6.43248,-3.93474 L -6.42988,-3.95914
 L -6.42847,-3.98364 L -6.42827,-4.00818 L -6.42927,-4.0327 L -6.43148,-4.05714 L -6.43488,-4.08145 L -6.43947,-4.10556
 L -6.44524,-4.12941 L -6.45217,-4.15295 L -6.46025,-4.17612 L -6.46946,-4.19887 L -6.47977,-4.22114 L -6.49116,-4.24288
 L -6.5036,-4.26403 L -6.51707,-4.28455 L -6.53153,-4.30438 L -6.54694,-4.32348 L -6.56327,-4.3418 L -6.58048,-4.35929
 L -6.59853,-4.37592 L -6.61737,-4.39164 L -6.63696,-4.40642 L -6.65726,-4.42022 L -6.6782,-4.43301 L -12.7404,-7.93301
 L -12.7619,-7.94476 L -12.784,-7.95543 L -12.8066,-7.96501 L -12.8297,-7.97346 L -12.8531,-7.98078 L -12.8768,-7.98694
 L -12.9009,-7.99192 L -12.9251,-7.99572 L -12.9495,-7.99833 L -12.974,-7.99973 L -12.9986,-7.99993 L -13.0231,-7.99893
 L -13.0475,-7.99672 L -13.0718,-7.99332 L -13.0959,-7.98873 L -13.1198,-7.98296 L -13.1433,-7.97603 L -13.1665,-7.96795
 L -13.1893,-7.95875 L -13.2115,-7.94844 L -13.2333,-7.93705 L -13.2544,-7.9246 L -13.2749,-7.91113 L -13.2948,-7.89668
 L -13.3139,-7.88126 L -13.3322,-7.86493 L -13.3497,-7.84772 L -13.3663,-7.82967 L -13.382,-7.81083 L -13.3968,-7.79124
 L -13.4106,-7.77095 L -13.4234,-7.75 L -13.4351,-7.72845 L -13.4458,-7.70635 L -13.4554,-7.68376 L -13.4638,-7.66072
 L -13.4712,-7.63729 L -13.4773,-7.61354 L -13.4823,-7.58951 L -13.4861,-7.56526 L -13.4887,-7.54086 L -13.4901,-7.51636
 L -13.4903,-7.49182 L -13.4893,-7.4673 L -13.4871,-7.44286 L -13.4837,-7.41855 L -13.4791,-7.39444 L -13.4733,-7.37059
 L -13.4664,-7.34705 L -13.4583,-7.32387 L -13.4491,-7.30113 L -13.4388,-7.27886 L -13.4274,-7.25712 L -13.415,-7.23597
 L -13.4015,-7.21545 L -13.3871,-7.19562 L -13.3716,-7.17652 L -13.3553,-7.1582 L -13.3381,-7.14071 L -13.3201,-7.12408
 L -13.3012,-7.10836 L -13.2816,-7.09358 L -13.2613,-7.07977 L -13.2404,-7.06699 L -7.1782,-3.56699 L -7.15665,-3.55524
 L -7.13456,-3.54457 L -7.11196,-3.53499 L -7.08892,-3.52653 L -7.0655,-3.51922 L -7.04174,-3.51306 L -7.01771,-3.50808
 L -6.99347,-3.50428 L -6.96906,-3.50167 L -6.94456,-3.50027 L -6.92002,-3.50007 z
M 7.5,6.5 L 6,6.5 L 6,-0 L 5.99277,-0.294406 L 5.97111,-0.588102 L 5.93506,-0.880383
 L 5.88471,-1.17054 L 5.82019,-1.45788 L 5.74164,-1.74171 L 5.64926,-2.02134 L 5.54328,-2.2961 L 5.42393,-2.56533
 L 5.29153,-2.82838 L 5.14637,-3.08462 L 4.98882,-3.33342 L 4.81924,-3.57419 L 4.63806,-3.80636 L 4.44571,-4.02935
 L 4.24264,-4.24264 L 4.02935,-4.44571 L 3.80636,-4.63806 L 3.57419,-4.81924 L 3.33342,-4.98882 L 3.08462,-5.14637
 L 2.82838,-5.29153 L 2.56533,-5.42393 L 2.2961,-5.54328 L 2.02134,-5.64926 L 1.74171,-5.74164 L 1.45788,-5.82019
 L 1.17054,-5.88471 L 0.880383,-5.93506 L 0.588102,-5.97111 L 0.294406,-5.99277 L 0,-6 L -0.294406,-5.99277
 L -0.588102,-5.97111 L -0.880383,-5.93506 L -1.17054,-5.88471 L -1.45788,-5.82019 L -1.74171,-5.74164 L -2.02134,-5.64926
 L -2.2961,-5.54328 L -2.56533,-5.42393 L -2.82838,-5.29153 L -3.08462,-5.14637 L -3.33342,-4.98882 L -3.57419,-4.81924
 L -3.80636,-4.63806 L -4.02935,-4.44571 L -4.24264,-4.24264 L -4.44571,-4.02935 L -4.63806,-3.80636 L -4.81924,-3.57419
 L -4.98882,-3.33342 L -5.14637,-3.08462 L -5.29153,-2.82838 L -5.42393,-2.56533 L -5.54328,-2.2961 L -5.64926,-2.02134
 L -5.74164,-1.74171 L -5.82019,-1.45788 L -5.88471,-1.17054 L -5.93506,-0.880383 L -5.97111,-0.588102 L -5.99277,-0.294406
 L -6,-0 L -6,6.5 L -7.5,6.5 L -7.5,7.5 L 7.5,7.5 z
M -1.58195,3.4256 L -1.58195,2.995 L -1.56134,2.94865 L -1.54021,2.90295 L -1.51855,2.85789 L -1.49636,2.81348
 L -1.47364,2.76971 L -1.4504,2.72659 L -1.42662,2.68412 L -1.40232,2.64229 L -1.37749,2.6011 L -1.35214,2.56056
 L -1.32625,2.52067 L -1.29984,2.48142 L -1.2729,2.44281 L -1.24543,2.40485 L -1.21743,2.36754 L -1.1889,2.33087
 L -1.15985,2.29485 L -1.13044,2.25934 L -1.10085,2.22424 L -1.07109,2.18953 L -1.04115,2.15522 L -1.01104,2.12131
 L -0.980751,2.0878 L -0.950287,2.05469 L -0.919647,2.02198 L -0.888833,1.98967 L -0.857842,1.95776 L -0.826677,1.92624
 L -0.795336,1.89513 L -0.76382,1.86441 L -0.732128,1.8341 L -0.70026,1.80418 L -0.668218,1.77467 L -0.636,1.74555
 L -0.603705,1.71675 L -0.571446,1.6882 L -0.539223,1.65989 L -0.507035,1.63183 L -0.474882,1.60402 L -0.442764,1.57645
 L -0.410682,1.54913 L -0.378634,1.52206 L -0.346623,1.49523 L -0.314647,1.46865 L -0.282705,1.44232 L -0.250799,1.41623
 L -0.218929,1.39039 L -0.187094,1.3648 L -0.155293,1.33945 L -0.123528,1.31435 L -0.0917997,1.2895 L -0.0602694,1.26477
 L -0.0291033,1.24004 L 0.00169849,1.21531 L 0.0321369,1.19058 L 0.0622129,1.16585 L 0.0919237,1.14112 L 0.121272,1.11639
 L 0.150256,1.09166 L 0.178877,1.06693 L 0.207134,1.04221 L 0.235027,1.01748 L 0.262557,0.992746 L 0.289722,0.968018
 L 0.316525,0.943288 L 0.342963,0.918558 L 0.369039,0.893829 L 0.39475,0.8691 L 0.419991,0.844294 L 0.444659,0.819348
 L 0.468751,0.794262 L 0.49227,0.769034 L 0.515212,0.743667 L 0.53758,0.718159 L 0.559374,0.692511 L 0.580593,0.666721
 L 0.601237,0.640792 L 0.621306,0.614722 L 0.640801,0.588512 L 0.659721,0.562161 L 0.678066,0.535669 L 0.695837,0.509038
 L 0.713033,0.482265 L 0.729653,0.455353 L 0.7457,0.4283 L 0.760995,0.400959 L 0.775363,0.373198 L 0.788805,0.345014
 L 0.801319,0.316407 L 0.812906,0.28738 L 0.823566,0.257931 L 0.8333,0.22806 L 0.842107,0.197766 L 0.849986,0.167052
 L 0.856938,0.135916 L 0.862964,0.104357 L 0.868062,0.0723772 L 0.872233,0.0399752 L 0.875478,0.0071516 L 0.877795,-0.0260935
 L 0.879186,-0.0597601 L 0.879649,-0.0938492 L 0.878852,-0.139516 L 0.876458,-0.183962 L 0.872468,-0.227187 L 0.866882,-0.269192
 L 0.859701,-0.309977 L 0.850924,-0.349541 L 0.840551,-0.387885 L 0.828583,-0.425008 L 0.815018,-0.460911 L 0.799857,-0.495593
 L 0.783101,-0.529056 L 0.764749,-0.561297 L 0.744801,-0.592319 L 0.723256,-0.622119 L 0.700117,-0.6507 L 0.675381,-0.67806
 L 0.64905,-0.7042 L 0.621305,-0.728978 L 0.592316,-0.752254 L 0.562082,-0.77403 L 0.530606,-0.794303 L 0.497887,-0.813075
 L 0.463923,-0.830345 L 0.428717,-0.846113 L 0.392266,-0.860379 L 0.354572,-0.873144 L 0.315635,-0.884407 L 0.275453,-0.894169
 L 0.234028,-0.902428 L 0.19136,-0.909185 L 0.147448,-0.914442 L 0.102292,-0.918196 L 0.055892,-0.920448 L 0.00824928,-0.9212
 L -0.0371504,-0.920466 L -0.0816011,-0.918266 L -0.125102,-0.914599 L -0.167651,-0.909465 L -0.20925,-0.902864 L -0.249899,-0.894797
 L -0.289598,-0.885263 L -0.328344,-0.874263 L -0.366141,-0.861794 L -0.402988,-0.84786 L -0.438885,-0.832459 L -0.47383,-0.815591
 L -0.507825,-0.797256 L -0.54087,-0.777455 L -0.572963,-0.756186 L -0.604107,-0.733452 L -0.634299,-0.709249 L -0.663296,-0.683727
 L -0.690848,-0.657021 L -0.716958,-0.629128 L -0.741624,-0.600051 L -0.764847,-0.569788 L -0.786627,-0.538341 L -0.806963,-0.505708
 L -0.825856,-0.47189 L -0.843307,-0.436888 L -0.859313,-0.4007 L -0.873877,-0.363326 L -0.886997,-0.324768 L -0.898674,-0.285025
 L -0.908908,-0.244096 L -0.917698,-0.201982 L -0.925046,-0.158684 L -0.930949,-0.1142 L -1.55485,-0.171849 L -1.54566,-0.238452
 L -1.53404,-0.303435 L -1.51999,-0.366799 L -1.50351,-0.428544 L -1.48461,-0.48867 L -1.46327,-0.547177 L -1.43951,-0.604066
 L -1.41332,-0.659334 L -1.3847,-0.712985 L -1.35365,-0.765016 L -1.32017,-0.815428 L -1.28426,-0.864221 L -1.24593,-0.911394
 L -1.20516,-0.956949 L -1.16197,-1.00089 L -1.11635,-1.0432 L -1.0683,-1.0839 L -1.01821,-1.12262 L -0.966461,-1.15899
 L -0.913061,-1.19302 L -0.858006,-1.2247 L -0.801297,-1.25404 L -0.742933,-1.28102 L -0.682916,-1.30566 L -0.621243,-1.32796
 L -0.557917,-1.34791 L -0.492936,-1.36551 L -0.426301,-1.38076 L -0.358011,-1.39367 L -0.288068,-1.40423 L -0.21647,-1.41244
 L -0.143217,-1.41831 L -0.0683107,-1.42183 L 0.00824928,-1.423 L 0.0920582,-1.42182 L 0.173556,-1.41828 L 0.252742,-1.41239
 L 0.329617,-1.40413 L 0.404181,-1.39352 L 0.476432,-1.38055 L 0.546372,-1.36522 L 0.614002,-1.34754 L 0.679319,-1.3275
 L 0.742326,-1.30509 L 0.80302,-1.28033 L 0.861403,-1.25321 L 0.917476,-1.22374 L 0.971236,-1.1919 L 1.02269,-1.15771
 L 1.07182,-1.12116 L 1.11865,-1.08225 L 1.16298,-1.04117 L 1.20463,-0.998107 L 1.24359,-0.953061 L 1.27986,-0.906033
 L 1.31345,-0.85702 L 1.34435,-0.806026 L 1.37256,-0.753047 L 1.39808,-0.698086 L 1.42092,-0.641142 L 1.44107,-0.582215
 L 1.45854,-0.521305 L 1.47331,-0.458411 L 1.4854,-0.393536 L 1.49481,-0.326675 L 1.50153,-0.257833 L 1.50556,-0.187008
 L 1.5069,-0.1142 L 1.50646,-0.0815048 L 1.50514,-0.0488338 L 1.50294,-0.0161858 L 1.49986,0.0164375 L 1.4959,0.0490389
 L 1.49106,0.0816174 L 1.48534,0.114173 L 1.47874,0.146705 L 1.47126,0.179214 L 1.4629,0.211699 L 1.45366,0.244162
 L 1.44354,0.276601 L 1.43255,0.309017 L 1.42067,0.34141 L 1.40791,0.373779 L 1.39427,0.406126 L 1.37975,0.43845
 L 1.36436,0.470761 L 1.34812,0.503073 L 1.33102,0.535385 L 1.31306,0.567697 L 1.29425,0.600008 L 1.27458,0.63232
 L 1.25406,0.664632 L 1.23267,0.696943 L 1.21044,0.729256 L 1.18734,0.761567 L 1.16339,0.793879 L 1.13858,0.826191
 L 1.11292,0.858502 L 1.0864,0.890814 L 1.05902,0.923126 L 1.03079,0.955438 L 1.0017,0.987749 L 0.970598,1.02111
 L 0.936329,1.05655 L 0.898891,1.09408 L 0.858286,1.1337 L 0.814513,1.17541 L 0.767572,1.21921 L 0.717464,1.26509
 L 0.664188,1.31307 L 0.607744,1.36313 L 0.548132,1.41528 L 0.485353,1.46952 L 0.419405,1.52584 L 0.350289,1.58426
 L 0.278007,1.64476 L 0.202555,1.70735 L 0.123937,1.77203 L 0.0421495,1.8388 L -0.00317478,1.87608 L -0.0473967,1.91292
 L -0.0905151,1.94933 L -0.13253,1.9853 L -0.173443,2.02085 L -0.213252,2.05595 L -0.251959,2.09063 L -0.289561,2.12487
 L -0.326061,2.15867 L -0.361459,2.19205 L -0.395752,2.22498 L -0.428943,2.25749 L -0.461031,2.28956 L -0.492015,2.32119
 L -0.521896,2.3524 L -0.550674,2.38317 L -0.578349,2.4135 L -0.605027,2.44355 L -0.630814,2.47348 L -0.655707,2.50327
 L -0.67971,2.53294 L -0.702821,2.56247 L -0.72504,2.59188 L -0.746367,2.62116 L -0.766804,2.65031 L -0.786347,2.67933
 L -0.805,2.70822 L -0.822761,2.73699 L -0.83963,2.76562 L -0.855607,2.79412 L -0.870693,2.8225 L -0.884887,2.85074
 L -0.898189,2.87886 L -0.9106,2.90685 L 1.5815,2.90685 L 1.5815,3.4256 z
" stroke="black" fill="lightgray" stroke-width="0.5"/>
</svg>
