<?xml version="1.0" standalone="no"?>
<!DOCTYPE svg PUBLIC "-//W3C//DTD SVG 1.1//EN" "http://www.w3.org/Graphics/SVG/1.1/DTD/svg11.dtd">
<svg width="28mm" height="24mm" viewBox="-14 -16 28 24" xmlns="http://www.w3.org/2000/svg" version="1.1">
<title>OpenSCAD Model</title>
<path d="
M 0.0245333,-7.5006 L 0.0490084,-7.50241 L 0.0733652,-7.50541 L 0.0975447,-7.50961 L 0.12149,-7.51498 L 0.145142,-7.52153
 L 0.168445,-7.52923 L 0.191341,-7.53806 L 0.213778,-7.54801 L 0.235698,-7.55904 L 0.257051,-7.57114 L 0.277784,-7.58426
 L 0.297849,-7.5984 L 0.317196,-7.61349 L 0.335779,-7.62952 L 0.353553,-7.64645 L 0.370475,-7.66422 L 0.386505,-7.6828
 L 0.401604,-7.70215 L 0.415734,-7.72221 L 0.428864,-7.74295 L 0.44096,-7.7643 L 0.451994,-7.78622 L 0.461939,-7.80866
 L 0.470772,-7.83155 L 0.47847,-7.85486 L 0.485015,-7.87851 L 0.490392,-7.90245 L 0.494588,-7.92663 L 0.497592,-7.95099
 L 0.499397,-7.97547 L 0.5,-8 L 0.5,-15 L 0.499397,-15.0245 L 0.497592,-15.049 L 0.494588,-15.0734
 L 0.490392,-15.0975 L 0.485015,-15.1215 L 0.47847,-15.1451 L 0.470772,-15.1684 L 0.461939,-15.1913 L 0.451994,-15.2138
 L 0.44096,-15.2357 L 0.428864,-15.2571 L 0.415734,-15.2778 L 0.401604,-15.2978 L 0.386505,-15.3172 L 0.370475,-15.3358
 L 0.353553,-15.3536 L 0.335779,-15.3705 L 0.317196,-15.3865 L 0.297849,-15.4016 L 0.277784,-15.4157 L 0.257051,-15.4289
 L 0.235698,-15.441 L 0.213778,-15.452 L 0.191341,-15.4619 L 0.168445,-15.4708 L 0.145142,-15.4785 L 0.12149,-15.485
 L 0.0975447,-15.4904 L 0.0733652,-15.4946 L 0.0490084,-15.4976 L 0.0245333,-15.4994 L 0,-15.5 L -0.0245333,-15.4994
 L -0.0490084,-15.4976 L -0.0733652,-15.4946 L -0.0975447,-15.4904 L -0.12149,-15.485 L -0.145142,-15.4785 L -0.168445,-15.4708
 L -0.191341,-15.4619 L -0.213778,-15.452 L -0.235698,-15.441 L -0.257051,-15.4289 L -0.277784,-15.4157 L -0.297849,-15.4016
 L -0.317196,-15.3865 L -0.335779,-15.3705 L -0.353553,-15.3536 L -0.370475,-15.3358 L -0.386505,-15.3172 L -0.401604,-15.2978
 L -0.415734,-15.2778 L -0.428864,-15.2571 L -0.44096,-15.2357 L -0.451994,-15.2138 L -0.461939,-15.1913 L -0.470772,-15.1684
 L -0.47847,-15.1451 L -0.485015,-15.1215 L -0.490392,-15.0975 L -0.494588,-15.0734 L -0.497592,-15.049 L -0.499397,-15.0245
 L -0.5,-15 L -0.5,-8 L -0.499397,-7.97547 L -0.497592,-7.95099 L -0.494588,-7.92663 L -0.490392,-7.90245
 L -0.485015,-7.87851 L -0.47847,-7.85486 L -0.470772,-7.83155 L -0.461939,-7.80866 L -0.451994,-7.78622 L -0.44096,-7.7643
 L -0.428864,-7.74295 L -0.415734,-7.72221 L -0.401604,-7.70215 L -0.386505,-7.6828 L -0.370475,-7.66422 L -0.353553,-7.64645
 L -0.335779,-7.62952 L -0.317196,-7.61349 L -0.297849,-7.5984 L -0.277784,-7.58426 L -0.257051,-7.57114 L -0.235698,-7.55904
 L -0.213778,-7.54801 L -0.191341,-7.53806 L -0.168445,-7.52923 L -0.145142,-7.52153 L -0.12149,-7.51498 L -0.0975447,-7.50961
 L -0.0733652,-7.50541 L -0.0490084,-7.50241 L -0.0245333,-7.5006 L 0,-7.5 z
M 4.0327,-6.42927 L 4.05714,-6.43148 L 4.08145,-6.43488 L 4.10556,-6.43947 L 4.12941,-6.44524 L 4.15295,-6.45217
 L 4.17612,-6.46025 L 4.19887,-6.46946 L 4.22114,-6.47977 L 4.24288,-6.49116 L 4.26403,-6.5036 L 4.28455,-6.51707
 L 4.30438,-6.53153 L 4.32348,-6.54694 L 4.3418,-6.56327 L 4.35929,-6.58048 L 4.37592,-6.59853 L 4.39164,-6.61737
 L 4.40642,-6.63696 L 4.42022,-6.65726 L 4.43301,-6.6782 L 7.93301,-12.7404 L 7.94476,-12.7619 L 7.95543,-12.784
 L 7.96501,-12.8066 L 7.97346,-12.8297 L 7.98078,-12.8531 L 7.98694,-12.8768 L 7.99192,-12.9009 L 7.99572,-12.9251
 L 7.99833,-12.9495 L 7.99973,-12.974 L 7.99993,-12.9986 L 7.99893,-13.0231 L 7.99672,-13.0475 L 7.99332,-13.0718
 L 7.98873,-13.0959 L 7.98296,-13.1198 L 7.97603,-13.1433 L 7.96795,-13.1665 L 7.95875,-13.1893 L 7.94844,-13.2115
 L 7.93705,-13.2333 L 7.9246,-13.2544 L 7.91113,-13.2749 L 7.89668,-13.2948 L 7.88126,-13.3139 L 7.86493,-13.3322
 L 7.84772,-13.3497 L 7.82967,-13.3663 L 7.81083,-13.382 L 7.79124,-13.3968 L 7.77095,-13.4106 L 7.75,-13.4234
 L 7.72845,-13.4351 L 7.70635,-13.4458 L 7.68376,-13.4554 L 7.66072,-13.4638 L 7.63729,-13.4712 L 7.61354,-13.4773
 L 7.58951,-13.4823 L 7.56526,-13.4861 L 7.54086,-13.4887 L 7.51636,-13.4901 L 7.49182,-13.4903 L 7.4673,-13.4893
 L 7.44286,-13.4871 L 7.41855,-13.4837 L 7.39444,-13.4791 L 7.37059,-13.4733 L 7.34705,-13.4664 L 7.32387,-13.4583
 L 7.30113,-13.4491 L 7.27886,-13.4388 L 7.25712,-13.4274 L 7.23597,-13.415 L 7.21545,-13.4015 L 7.19562,-13.3871
 L 7.17652,-13.3716 L 7.1582,-13.3553 L 7.14071,-13.3381 L 7.12408,-13.3201 L 7.10836,-13.3012 L 7.09358,-13.2816
 L 7.07977,-13.2613 L 7.06699,-13.2404 L 3.56699,-7.1782 L 3.55524,-7.15665 L 3.54457,-7.13456 L 3.53499,-7.11196
 L 3.52653,-7.08892 L 3.51922,-7.0655 L 3.51306,-7.04174 L 3.50808,-7.01771 L 3.50428,-6.99347 L 3.50167,-6.96906
 L 3.50027,-6.94456 L 3.50007,-6.92002 L 3.50107,-6.8955 L 3.50328,-6.87106 L 3.50668,-6.84676 L 3.51127,-6.82265
 L 3.51704,-6.79879 L 3.52397,-6.77525 L 3.53205,-6.75208 L 3.54125,-6.72933 L 3.55156,-6.70706 L 3.56295,-6.68532
 L 3.5754,-6.66417 L 3.58887,-6.64365 L 3.60332,-6.62382 L 3.61874,-6.60472 L 3.63507,-6.58641 L 3.65228,-6.56891
 L 3.67033,-6.55228 L 3.68917,-6.53656 L 3.70876,-6.52178 L 3.72905,-6.50798 L 3.75,-6.49519 L 3.77155,-6.48345
 L 3.79365,-6.47277 L 3.81624,-6.46319 L 3.83928,-6.45474 L 3.86271,-6.44742 L 3.88646,-6.44126 L 3.91049,-6.43628
 L 3.93474,-6.43248 L 3.95914,-6.42988 L 3.98364,-6.42847 L 4.00818,-6.42827 z
M -3.98364,-6.42847 L -3.95914,-6.42988 L -3.93474,-6.43248 L -3.91049,-6.43628 L -3.88646,-6.44126 L -3.86271,-6.44742
 L -3.83928,-6.45474 L -3.81624,-6.46319 L -3.79365,-6.47277 L -3.77155,-6.48345 L -3.75,-6.49519 L -3.72905,-6.50798
 L -3.70876,-6.52178 L -3.68917,-6.53656 L -3.67033,-6.55228 L -3.65228,-6.56891 L -3.63507,-6.58641 L -3.61874,-6.60472
 L -3.60332,-6.62382 L -3.58887,-6.64365 L -3.5754,-6.66417 L -3.56295,-6.68532 L -3.55156,-6.70706 L -3.54125,-6.72933
 L -3.53205,-6.75208 L -3.52397,-6.77525 L -3.51704,-6.79879 L -3.51127,-6.82265 L -3.50668,-6.84676 L -3.50328,-6.87106
 L -3.50107,-6.8955 L -3.50007,-6.92002 L -3.50027,-6.94456 L -3.50167,-6.96906 L -3.50428,-6.99347 L -3.50808,-7.01771
 L -3.51306,-7.04174 L -3.51922,-7.0655 L -3.52653,-7.08892 L -3.53499,-7.11196 L -3.54457,-7.13456 L -3.55524,-7.15665
 L -3.56699,-7.1782 L -7.06699,-13.2404 L -7.07977,-13.2613 L -7.09358,-13.2816 L -7.10836,-13.3012 L -7.12408,-13.3201
 L -7.14071,-13.3381 L -7.1582,-13.3553 L -7.17652,-13.3716 L -7.19562,-13.3871 L -7.21545,-13.4015 L -7.23597,-13.415
 L -7.25712,-13.4274 L -7.27886,-13.4388 L -7.30113,-13.4491 L -7.32387,-13.4583 L -7.34705,-13.4664 L -7.37059,-13.4733
 L -7.39444,-13.4791 L -7.41855,-13.4837 L -7.44286,-13.4871 L -7.4673,-13.4893 L -7.49182,-13.4903 L -7.51636,-13.4901
 L -7.54086,-13.4887 L -7.56526,-13.4861 L -7.58951,-13.4823 L -7.61354,-13.4773 L -7.63729,-13.4712 L -7.66072,-13.4638
 L -7.68376,-13.4554 L -7.70635,-13.4458 L -7.72845,-13.4351 L -7.75,-13.4234 L -7.77095,-13.4106 L -7.79124,-13.3968
 L -7.81083,-13.382 L -7.82967,-13.3663 L -7.84772,-13.3497 L -7.86493,-13.3322 L -7.88126,-13.3139 L -7.89668,-13.2948
 L -7.91113,-13.2749 L -7.9246,-13.2544 L -7.93705,-13.2333 L -7.94844,-13.2115 L -7.95875,-13.1893 L -7.96795,-13.1665
 L -7.97603,-13.1433 L -7.98296,-13.1198 L -7.98873,-13.0959 L -7.99332,-13.0718 L -7.99672,-13.0475 L -7.99893,-13.0231
 L -7.99993,-12.9986 L -7.99973,-12.974 L -7.99833,-12.9495 L -7.99572,-12.9251 L -7.99192,-12.9009 L -7.98694,-12.8768
 L -7.98078,-12.8531 L -7.97346,-12.8297 L -7.96501,-12.8066 L -7.95543,-12.784 L -7.94476,-12.7619 L -7.93301,-12.7404
 L -4.43301,-6.6782 L -4.42022,-6.65726 L -4.40642,-6.63696 L -4.39164,-6.61737 L -4.37592,-6.59853 L -4.35929,-6.58048
 L -4.3418,-6.56327 L -4.32348,-6.54694 L -4.30438,-6.53153 L -4.28455,-6.51707 L -4.26403,-6.5036 L -4.24288,-6.49116
 L -4.22114,-6.47977 L -4.19887,-6.46946 L -4.17612,-6.46025 L -4.15295,-6.45217 L -4.12941,-6.44524 L -4.10556,-6.43947
 L -4.08145,-6.43488 L -4.05714,-6.43148 L -4.0327,-6.42927 L -4.00818,-6.42827 z
M 6.94456,-3.50027 L 6.96906,-3.50167 L 6.99347,-3.50428 L 7.01771,-3.50808 L 7.04174,-3.51306 L 7.0655,-3.51922
 L 7.08892,-3.52653 L 7.11196,-3.53499 L 7.13456,-3.54457 L 7.15665,-3.55524 L 7.1782,-3.56699 L 13.2404,-7.06699
 L 13.2613,-7.07977 L 13.2816,-7.09358 L 13.3012,-7.10836 L 13.3201,-7.12408 L 13.3381,-7.14071 L 13.3553,-7.1582
 L 13.3716,-7.17652 L 13.3871,-7.19562 L 13.4015,-7.21545 L 13.415,-7.23597 L 13.4274,-7.25712 L 13.4388,-7.27886
 L 13.4491,-7.30113 L 13.4583,-7.32387 L 13.4664,-7.34705 L 13.4733,-7.37059 L 13.4791,-7.39444 L 13.4837,-7.41855
 L 13.4871,-7.44286 L 13.4893,-7.4673 L 13.4903,-7.49182 L 13.4901,-7.51636 L 13.4887,-7.54086 L 13.4861,-7.56526
 L 13.4823,-7.58951 L 13.4773,-7.61354 L 13.4712,-7.63729 L 13.4638,-7.66072 L 13.4554,-7.68376 L 13.4458,-7.70635
 L 13.4351,-7.72845 L 13.4234,-7.75 L 13.4106,-7.77095 L 13.3968,-7.79124 L 13.382,-7.81083 L 13.3663,-7.82967
 L 13.3497,-7.84772 L 13.3322,-7.86493 L 13.3139,-7.88126 L 13.2948,-7.89668 L 13.2749,-7.91113 L 13.2544,-7.9246
 L 13.2333,-7.93705 L 13.2115,-7.94844 L 13.1893,-7.95875 L 13.1665,-7.96795 L 13.1433,-7.97603 L 13.1198,-7.98296
 L 13.0959,-7.98873 L 13.0718,-7.99332 L 13.0475,-7.99672 L 13.0231,-7.99893 L 12.9986,-7.99993 L 12.974,-7.99973
 L 12.9495,-7.99833 L 12.9251,-7.99572 L 12.9009,-7.99192 L 12.8768,-7.98694 L 12.8531,-7.98078 L 12.8297,-7.97346
 L 12.8066,-7.96501 L 12.784,-7.95543 L 12.7619,-7.94476 L 12.7404,-7.93301 L 6.6782,-4.43301 L 6.65726,-4.42022
 L 6.63696,-4.40642 L 6.61737,-4.39164 L 6.59853,-4.37592 L 6.58048,-4.35929 L 6.56327,-4.3418 L 6.54694,-4.32348
 L 6.53153,-4.30438 L 6.51707,-4.28455 L 6.5036,-4.26403 L 6.49116,-4.24288 L 6.47977,-4.22114 L 6.46946,-4.19887
 L 6.46025,-4.17612 L 6.45217,-4.15295 L 6.44524,-4.12941 L 6.43947,-4.10556 L 6.43488,-4.08145 L 6.43148,-4.05714
 L 6.42927,-4.0327 L 6.42827,-4.00818 L 6.42847,-3.98364 L 6.42988,-3.95914 L 6.43248,-3.93474 L 6.43628,-3.91049
 L 6.44126,-3.88646 L 6.44742,-3.86271 L 6.45474,-3.83928 L 6.46319,-3.81624 L 6.47277,-3.79365 L 6.48345,-3.77155
 L 6.49519,-3.75 L 6.50798,-3.72905 L 6.52178,-3.70876 L 6.53656,-3.68917 L 6.55228,-3.67033 L 6.56891,-3.65228
 L 6.58641,-3.63507 L 6.60472,-3.61874 L 6.62382,-3.60332 L 6.64365,-3.58887 L 6.66417,-3.5754 L 6.68532,-3.56295
 L 6.70706,-3.55156 L 6.72933,-3.54125 L 6.75208,-3.53205 L 6.77525,-3.52397 L 6.79879,-3.51704 L 6.82265,-3.51127
 L 6.84676,-3.50668 L 6.87106,-3.50328 L 6.8955,-3.50107 L 6.92002,-3.50007 z
M -6.8955,-3.50107 L -6.87106,-3.50328 L -6.84676,-3.50668 L -6.82265,-3.51127 L -6.79879,-3.51704 L -6.77525,-3.52397
 L -6.75208,-3.53205 L -6.72933,-3.54125 L -6.70706,-3.55156 L -6.68532,-3.56295 L -6.66417,-3.5754 L -6.64365,-3.58887
 L -6.62382,-3.60332 L -6.60472,-3.61874 L -6.58641,-3.63507 L -6.56891,-3.65228 L -6.55228,-3.67033 L -6.53656,-3.68917
 L -6.52178,-3.70876 L -6.50798,-3.72905 L -6.49519,-3.75 L -6.48345,-3.77155 L -6.47277,-3.79365 L -6.46319,-3.81624
 L -6.45474,-3.83928 L -6.44742,-3.86271 L -6.44126,-3.88646 L -6.43628,-3.91049 L -6.43248,-3.93474 L -6.42988,-3.95914
 L -6.42847,-3.98364 L -6.42827,-4.00818 L -6.42927,-4.0327 L -6.43148,-4.05714 L -6.43488,-4.08145 L -6.43947,-4.10556
 L -6.44524,-4.12941 L -6.45217,-4.15295 L -6.46025,-4.17612 L -6.46946,-4.19887 L -6.47977,-4.22114 L -6.49116,-4.24288
 L -6.5036,-4.26403 L -6.51707,-4.28455 L -6.53153,-4.30438 L -6.54694,-4.32348 L -6.56327,-4.3418 L -6.58048,-4.35929
 L -6.59853,-4.37592 L -6.61737,-4.39164 L -6.63696,-4.40642 L -6.65726,-4.42022 L -6.6782,-4.43301 L -12.7404,-7.93301
 L -12.7619,-7.94476 L -12.784,-7.95543 L -12.8066,-7.96501 L -12.8297,-7.97346 L -12.8531,-7.98078 L -12.8768,-7.98694
 L -12.9009,-7.99192 L -12.9251,-7.99572 L -12.9495,-7.99833 L -12.974,-7.99973 L -12.9986,-7.99993 L -13.0231,-7.99893
 L -13.0475,-7.99672 L -13.0718,-7.99332 L -13.0959,-7.98873 L -13.1198,-7.98296 L -13.1433,-7.97603 L -13.1665,-7.96795
 L -13.1893,-7.95875 L -13.2115,-7.94844 L -13.2333,-7.93705 L -13.2544,-7.9246 L -13.2749,-7.91113 L -13.2948,-7.89668
 L -13.3139,-7.88126 L -13.3322,-7.86493 L -13.3497,-7.84772 L -13.3663,-7.82967 L -13.382,-7.81083 L -13.3968,-7.79124
 L -13.4106,-7.77095 L -13.4234,-7.75 L -13.4351,-7.72845 L -13.4458,-7.70635 L -13.4554,-7.68376 L -13.4638,-7.66072
 L -13.4712,-7.63729 L -13.4773,-7.61354 L -13.4823,-7.58951 L -13.4861,-7.56526 L -13.4887,-7.54086 L -13.4901,-7.51636
 L -13.4903,-7.49182 L -13.4893,-7.4673 L -13.4871,-7.44286 L -13.4837,-7.41855 L -13.4791,-7.39444 L -13.4733,-7.37059
 L -13.4664,-7.34705 L -13.4583,-7.32387 L -13.4491,-7.30113 L -13.4388,-7.27886 L -13.4274,-7.25712 L -13.415,-7.23597
 L -13.4015,-7.21545 L -13.3871,-7.19562 L -13.3716,-7.17652 L -13.3553,-7.1582 L -13.3381,-7.14071 L -13.3201,-7.12408
 L -13.3012,-7.10836 L -13.2816,-7.09358 L -13.2613,-7.07977 L -13.2404,-7.06699 L -7.1782,-3.56699 L -7.15665,-3.55524
 L -7.13456,-3.54457 L -7.11196,-3.53499 L -7.08892,-3.52653 L -7.0655,-3.51922 L -7.04174,-3.51306 L -7.01771,-3.50808
 L -6.99347,-3.50428 L -6.96906,-3.50167 L -6.94456,-3.50027 L -6.92002,-3.50007 z
M 7.5,6.5 L 6,6.5 L 6,-0 L 5.99277,-0.294406 L 5.97111,-0.588102 L 5.93506,-0.880383
 L 5.88471,-1.17054 L 5.82019,-1.45788 L 5.74164,-1.74171 L 5.64926,-2.02134 L 5.54328,-2.2961 L 5.42393,-2.56533
 L 5.29153,-2.82838 L 5.14637,-3.08462 L 4.98882,-3.33342 L 4.81924,-3.57419 L 4.63806,-3.80636 L 4.44571,-4.02935
 L 4.24264,-4.24264 L 4.02935,-4.44571 L 3.80636,-4.63806 L 3.57419,-4.81924 L 3.33342,-4.98882 L 3.08462,-5.14637
 L 2.82838,-5.29153 L 2.56533,-5.42393 L 2.2961,-5.54328 L 2.02134,-5.64926 L 1.74171,-5.74164 L 1.45788,-5.82019
 L 1.17054,-5.88471 L 0.880383,-5.93506 L 0.588102,-5.97111 L 0.294406,-5.99277 L 0,-6 L -0.294406,-5.99277
 L -0.588102,-5.97111 L -0.880383,-5.93506 L -1.17054,-5.88471 L -1.45788,-5.82019 L -1.74171,-5.74164 L -2.02134,-5.64926
 L -2.2961,-5.54328 L -2.56533,-5.42393 L -2.82838,-5.29153 L -3.08462,-5.14637 L -3.33342,-4.98882 L -3.57419,-4.81924
 L -3.80636,-4.63806 L -4.02935,-4.44571 L -4.24264,-4.24264 L -4.44571,-4.02935 L -4.63806,-3.80636 L -4.81924,-3.57419
 L -4.98882,-3.33342 L -5.14637,-3.08462 L -5.29153,-2.82838 L -5.42393,-2.56533 L -5.54328,-2.2961 L -5.64926,-2.02134
 L -5.74164,-1.74171 L -5.82019,-1.45788 L -5.88471,-1.17054 L -5.93506,-0.880383 L -5.97111,-0.588102 L -5.99277,-0.294406
 L -6,-0 L -6,6.5 L -7.5,6.5 L -7.5,7.5 L 7.5,7.5 z
M -1.49665,3.3888 L -1.49665,2.87005 L -0.279449,2.87005 L -0.279449,-0.8054 L -1.35765,-0.0357494 L -1.35765,-0.612149
 L -0.22855,-1.3886 L 0.334299,-1.3886 L 0.334299,2.87005 L 1.49725,2.87005 L 1.49725,3.3888 z
" stroke="black" fill="lightgray" stroke-width="0.5"/>
</svg>
