<?xml version="1.0" standalone="no"?>
<!DOCTYPE svg PUBLIC "-//W3C//DTD SVG 1.1//EN" "http://www.w3.org/Graphics/SVG/1.1/DTD/svg11.dtd">
<svg width="30mm" height="20mm" viewBox="-15 -9 30 20" xmlns="http://www.w3.org/2000/svg" version="1.1">
<title>OpenSCAD Model</title>
<path d="
M -12.9019,3.99759 L -12.804,3.99037 L -12.7065,3.97835 L -12.6098,3.96157 L -12.514,3.94006 L -12.4194,3.91388
 L -12.3262,3.88309 L -12.2346,3.84776 L -12.1449,3.80798 L -12.0572,3.76384 L -11.9718,3.71546 L -11.8889,3.66294
 L -11.8086,3.60641 L -11.7312,3.54602 L -11.6569,3.4819 L -11.5858,3.41421 L -2.58579,-5.58579 L -2.5181,-5.65688
 L -2.45398,-5.73121 L -2.39358,-5.8086 L -2.33706,-5.88886 L -2.28454,-5.97179 L -2.23616,-6.05721 L -2.19202,-6.14489
 L -2.15224,-6.23463 L -2.11691,-6.32622 L -2.08612,-6.41943 L -2.05994,-6.51404 L -2.03843,-6.60982 L -2.02165,-6.70654
 L -2.00963,-6.80397 L -2.00241,-6.90186 L -2,-7 L -2.00241,-7.09813 L -2.00963,-7.19603 L -2.02165,-7.29346
 L -2.03843,-7.39018 L -2.05994,-7.48596 L -2.08612,-7.58057 L -2.11691,-7.67378 L -2.15224,-7.76537 L -2.19202,-7.85511
 L -2.23616,-7.94279 L -2.28454,-8.0282 L -2.33706,-8.11114 L -2.39358,-8.1914 L -2.45398,-8.26879 L -2.5181,-8.34312
 L -2.58579,-8.41421 L -2.65688,-8.4819 L -2.73121,-8.54602 L -2.8086,-8.60641 L -2.88886,-8.66294 L -2.97179,-8.71546
 L -3.05721,-8.76384 L -3.14489,-8.80798 L -3.23463,-8.84776 L -3.32622,-8.88309 L -3.41943,-8.91388 L -3.51404,-8.94006
 L -3.60982,-8.96157 L -3.70654,-8.97835 L -3.80397,-8.99037 L -3.90186,-8.99759 L -4,-9 L -4.09813,-8.99759
 L -4.19603,-8.99037 L -4.29346,-8.97835 L -4.39018,-8.96157 L -4.48596,-8.94006 L -4.58057,-8.91388 L -4.67378,-8.88309
 L -4.76537,-8.84776 L -4.85511,-8.80798 L -4.94279,-8.76384 L -5.0282,-8.71546 L -5.11114,-8.66294 L -5.1914,-8.60641
 L -5.26879,-8.54602 L -5.34312,-8.4819 L -5.41421,-8.41421 L -14.4142,0.585786 L -14.4819,0.656881 L -14.546,0.731213
 L -14.6064,0.808601 L -14.6629,0.888859 L -14.7155,0.971794 L -14.7638,1.05721 L -14.808,1.14489 L -14.8478,1.23463
 L -14.8831,1.32622 L -14.9139,1.41943 L -14.9401,1.51404 L -14.9616,1.60982 L -14.9784,1.70654 L -14.9904,1.80397
 L -14.9976,1.90186 L -15,2 L -14.9976,2.09813 L -14.9904,2.19603 L -14.9784,2.29346 L -14.9616,2.39018
 L -14.9401,2.48596 L -14.9139,2.58057 L -14.8831,2.67378 L -14.8478,2.76537 L -14.808,2.85511 L -14.7638,2.94279
 L -14.7155,3.0282 L -14.6629,3.11114 L -14.6064,3.1914 L -14.546,3.26879 L -14.4819,3.34312 L -14.4142,3.41421
 L -14.3431,3.4819 L -14.2688,3.54602 L -14.1914,3.60641 L -14.1111,3.66294 L -14.0282,3.71546 L -13.9428,3.76384
 L -13.8551,3.80798 L -13.7654,3.84776 L -13.6738,3.88309 L -13.5806,3.91388 L -13.486,3.94006 L -13.3902,3.96157
 L -13.2935,3.97835 L -13.196,3.99037 L -13.0981,3.99759 L -13,4 z
M 4.09813,3.99759 L 4.19603,3.99037 L 4.29346,3.97835 L 4.39018,3.96157 L 4.48596,3.94006 L 4.58057,3.91388
 L 4.67378,3.88309 L 4.76537,3.84776 L 4.85511,3.80798 L 4.94279,3.76384 L 5.0282,3.71546 L 5.11114,3.66294
 L 5.1914,3.60641 L 5.26879,3.54602 L 5.34312,3.4819 L 5.41421,3.41421 L 14.4142,-5.58579 L 14.4819,-5.65688
 L 14.546,-5.73121 L 14.6064,-5.8086 L 14.6629,-5.88886 L 14.7155,-5.97179 L 14.7638,-6.05721 L 14.808,-6.14489
 L 14.8478,-6.23463 L 14.8831,-6.32622 L 14.9139,-6.41943 L 14.9401,-6.51404 L 14.9616,-6.60982 L 14.9784,-6.70654
 L 14.9904,-6.80397 L 14.9976,-6.90186 L 15,-7 L 14.9976,-7.09813 L 14.9904,-7.19603 L 14.9784,-7.29346
 L 14.9616,-7.39018 L 14.9401,-7.48596 L 14.9139,-7.58057 L 14.8831,-7.67378 L 14.8478,-7.76537 L 14.808,-7.85511
 L 14.7638,-7.94279 L 14.7155,-8.0282 L 14.6629,-8.11114 L 14.6064,-8.1914 L 14.546,-8.26879 L 14.4819,-8.34312
 L 14.4142,-8.41421 L 14.3431,-8.4819 L 14.2688,-8.54602 L 14.1914,-8.60641 L 14.1111,-8.66294 L 14.0282,-8.71546
 L 13.9428,-8.76384 L 13.8551,-8.80798 L 13.7654,-8.84776 L 13.6738,-8.88309 L 13.5806,-8.91388 L 13.486,-8.94006
 L 13.3902,-8.96157 L 13.2935,-8.97835 L 13.196,-8.99037 L 13.0981,-8.99759 L 13,-9 L 12.9019,-8.99759
 L 12.804,-8.99037 L 12.7065,-8.97835 L 12.6098,-8.96157 L 12.514,-8.94006 L 12.4194,-8.91388 L 12.3262,-8.88309
 L 12.2346,-8.84776 L 12.1449,-8.80798 L 12.0572,-8.76384 L 11.9718,-8.71546 L 11.8889,-8.66294 L 11.8086,-8.60641
 L 11.7312,-8.54602 L 11.6569,-8.4819 L 11.5858,-8.41421 L 2.58579,0.585786 L 2.5181,0.656881 L 2.45398,0.731213
 L 2.39358,0.808601 L 2.33706,0.888859 L 2.28454,0.971794 L 2.23616,1.05721 L 2.19202,1.14489 L 2.15224,1.23463
 L 2.11691,1.32622 L 2.08612,1.41943 L 2.05994,1.51404 L 2.03843,1.60982 L 2.02165,1.70654 L 2.00963,1.80397
 L 2.00241,1.90186 L 2,2 L 2.00241,2.09813 L 2.00963,2.19603 L 2.02165,2.29346 L 2.03843,2.39018
 L 2.05994,2.48596 L 2.08612,2.58057 L 2.11691,2.67378 L 2.15224,2.76537 L 2.19202,2.85511 L 2.23616,2.94279
 L 2.28454,3.0282 L 2.33706,3.11114 L 2.39358,3.1914 L 2.45398,3.26879 L 2.5181,3.34312 L 2.58579,3.41421
 L 2.65688,3.4819 L 2.73121,3.54602 L 2.8086,3.60641 L 2.88886,3.66294 L 2.97179,3.71546 L 3.05721,3.76384
 L 3.14489,3.80798 L 3.23463,3.84776 L 3.32622,3.88309 L 3.41943,3.91388 L 3.51404,3.94006 L 3.60982,3.96157
 L 3.70654,3.97835 L 3.80397,3.99037 L 3.90186,3.99759 L 4,4 z
M -8.68974,10.4569 L -8.58363,10.4532 L -8.48044,10.4469 L -8.38017,10.4381 L -8.28282,10.4268 L -8.1884,10.413
 L -8.09689,10.3967 L -8.00831,10.3779 L -7.92265,10.3565 L -7.83991,10.3327 L -7.76009,10.3063 L -7.68319,10.2774
 L -7.60921,10.246 L -7.53816,10.2121 L -7.47003,10.1757 L -7.40481,10.1368 L -7.34252,10.0954 L -7.28348,10.0517
 L -7.22801,10.0059 L -7.17612,9.95806 L -7.12781,9.90815 L -7.08308,9.85618 L -7.04193,9.80214 L -7.00435,9.74604
 L -6.97036,9.68787 L -6.93994,9.62764 L -6.9131,9.56534 L -6.88984,9.50098 L -6.87016,9.43455 L -6.85405,9.36606
 L -6.84153,9.29551 L -6.83258,9.22289 L -6.82721,9.1482 L -6.82542,9.07145 L -6.82568,9.04097 L -6.82643,9.01095
 L -6.82769,8.98141 L -6.82946,8.95234 L -6.83173,8.92373 L -6.83451,8.8956 L -6.83778,8.86793 L -6.84157,8.84073
 L -6.84586,8.81401 L -6.85065,8.78775 L -6.85595,8.76196 L -6.86175,8.73665 L -6.86805,8.7118 L -6.87487,8.68742
 L -6.88218,8.66351 L -6.89,8.64007 L -6.89832,8.6171 L -6.90709,8.59454 L -6.91625,8.57233 L -6.9258,8.55048
 L -6.93573,8.52897 L -6.94605,8.50782 L -6.95675,8.48702 L -6.96785,8.46657 L -6.97933,8.44648 L -6.99119,8.42673
 L -7.00345,8.40734 L -7.01609,8.3883 L -7.02912,8.36961 L -7.04254,8.35128 L -7.05634,8.33329 L -7.07053,8.31566
 L -7.08511,8.29838 L -7.10007,8.28145 L -7.11539,8.26484 L -7.13103,8.24854 L -7.14698,8.23255 L -7.16325,8.21686
 L -7.17983,8.20147 L -7.19673,8.1864 L -7.21395,8.17162 L -7.23149,8.15716 L -7.24934,8.14299 L -7.26751,8.12914
 L -7.286,8.11559 L -7.3048,8.10234 L -7.32392,8.0894 L -7.34336,8.07677 L -7.36311,8.06444 L -7.38319,8.05242
 L -7.40357,8.0407 L -7.4242,8.02922 L -7.44501,8.01791 L -7.46599,8.00678 L -7.48715,7.99583 L -7.50848,7.98505
 L -7.52999,7.97445 L -7.55168,7.96402 L -7.57354,7.95377 L -7.59558,7.9437 L -7.61779,7.9338 L -7.64018,7.92408
 L -7.66275,7.91453 L -7.68549,7.90516 L -7.70841,7.89597 L -7.73151,7.88695 L -7.75478,7.87811 L -7.77822,7.86945
 L -7.80182,7.86094 L -7.82555,7.85258 L -7.84941,7.84435 L -7.8734,7.83627 L -7.89751,7.82833 L -7.92176,7.82053
 L -7.94613,7.81286 L -7.97064,7.80534 L -7.99527,7.79797 L -8.02003,7.79073 L -8.04492,7.78363 L -8.06994,7.77667
 L -8.09509,7.76986 L -8.12037,7.76318 L -8.14577,7.75665 L -8.17131,7.75025 L -8.19697,7.744 L -8.22271,7.73782
 L -8.24846,7.73166 L -8.27421,7.72551 L -8.29998,7.71936 L -8.32576,7.71323 L -8.35156,7.70712 L -8.37736,7.70101
 L -8.40318,7.69492 L -8.429,7.68884 L -8.45484,7.68276 L -8.48069,7.67671 L -8.50655,7.67066 L -8.53242,7.66462
 L -8.55831,7.6586 L -8.5842,7.65259 L -8.61011,7.64659 L -8.63602,7.6406 L -8.7119,7.6236 L -8.78475,7.60693
 L -8.85457,7.59057 L -8.92136,7.57452 L -8.98513,7.5588 L -9.04587,7.54339 L -9.10358,7.52829 L -9.15827,7.51352
 L -9.20993,7.49906 L -9.25856,7.48492 L -9.30416,7.47109 L -9.34674,7.45759 L -9.38629,7.44439 L -9.42281,7.43152
 L -9.45631,7.41896 L -9.48678,7.40672 L -9.51422,7.3948 L -9.5398,7.38288 L -9.56465,7.37065 L -9.58879,7.35812
 L -9.61222,7.34528 L -9.63493,7.33214 L -9.65692,7.31869 L -9.6782,7.30494 L -9.69876,7.29088 L -9.71861,7.27652
 L -9.73774,7.26185 L -9.75616,7.24688 L -9.77386,7.2316 L -9.79084,7.21602 L -9.80711,7.20014 L -9.82266,7.18395
 L -9.8375,7.16745 L -9.85162,7.15065 L -9.86498,7.13343 L -9.87752,7.11569 L -9.88926,7.09741 L -9.90018,7.07861
 L -9.9103,7.05928 L -9.91961,7.03943 L -9.92811,7.01904 L -9.9358,6.99813 L -9.94268,6.97669 L -9.94875,6.95472
 L -9.95401,6.93222 L -9.95846,6.9092 L -9.9621,6.88564 L -9.96493,6.86156 L -9.96696,6.83695 L -9.96817,6.81182
 L -9.96857,6.78615 L -9.96753,6.74252 L -9.9644,6.70018 L -9.95918,6.65913 L -9.95187,6.61937 L -9.94247,6.5809
 L -9.93099,6.54372 L -9.91741,6.50784 L -9.90175,6.47324 L -9.884,6.43993 L -9.86416,6.40792 L -9.84224,6.37719
 L -9.81822,6.34776 L -9.79212,6.31962 L -9.76393,6.29276 L -9.73365,6.2672 L -9.70128,6.24293 L -9.66682,6.21995
 L -9.63038,6.19827 L -9.59206,6.1779 L -9.55186,6.15884 L -9.50979,6.1411 L -9.46583,6.12467 L -9.42001,6.10956
 L -9.3723,6.09576 L -9.32272,6.08327 L -9.27126,6.0721 L -9.21793,6.06225 L -9.16271,6.05371 L -9.10562,6.04648
 L -9.04666,6.04056 L -8.98581,6.03596 L -8.92309,6.03268 L -8.8585,6.03071 L -8.79202,6.03005 L -8.73138,6.03064
 L -8.67231,6.03242 L -8.61481,6.03538 L -8.55888,6.03953 L -8.50453,6.04486 L -8.45174,6.05138 L -8.40053,6.05908
 L -8.35089,6.06797 L -8.30282,6.07805 L -8.25633,6.08931 L -8.21141,6.10175 L -8.16805,6.11538 L -8.12627,6.13019
 L -8.08607,6.14619 L -8.04743,6.16338 L -8.01037,6.18174 L -7.97487,6.2013 L -7.94083,6.22216 L -7.90809,6.24447
 L -7.87667,6.26822 L -7.84656,6.29341 L -7.81777,6.32005 L -7.79029,6.34813 L -7.76413,6.37765 L -7.73928,6.40861
 L -7.71575,6.44102 L -7.69353,6.47487 L -7.67262,6.51017 L -7.65303,6.54691 L -7.63475,6.58509 L -7.61778,6.62471
 L -7.60213,6.66578 L -7.5878,6.70829 L -7.57477,6.75225 L -6.93732,6.64035 L -6.95856,6.57096 L -6.98158,6.50401
 L -7.00639,6.43948 L -7.03298,6.37738 L -7.06135,6.3177 L -7.0915,6.26046 L -7.12344,6.20564 L -7.15716,6.15326
 L -7.19266,6.1033 L -7.22995,6.05577 L -7.26902,6.01067 L -7.30987,5.96799 L -7.3525,5.92775 L -7.39692,5.88993
 L -7.44312,5.85454 L -7.49111,5.82158 L -7.54087,5.79105 L -7.59286,5.76259 L -7.6475,5.73585 L -7.70478,5.71084
 L -7.76472,5.68755 L -7.82731,5.66599 L -7.89256,5.64616 L -7.96045,5.62805 L -8.031,5.61166 L -8.10419,5.597
 L -8.18004,5.58406 L -8.25854,5.57285 L -8.33969,5.56336 L -8.4235,5.5556 L -8.50995,5.54956 L -8.59906,5.54525
 L -8.69081,5.54266 L -8.78522,5.5418 L -8.88674,5.54295 L -8.98545,5.5464 L -9.08136,5.55215 L -9.17446,5.5602
 L -9.26476,5.57055 L -9.35226,5.58319 L -9.43695,5.59814 L -9.51883,5.61539 L -9.59792,5.63494 L -9.67419,5.65678
 L -9.74767,5.68093 L -9.81834,5.70737 L -9.8862,5.73612 L -9.95126,5.76717 L -10.0135,5.80051 L -10.073,5.83615
 L -10.1296,5.8741 L -10.1832,5.91416 L -10.2336,5.95617 L -10.2807,6.00013 L -10.3246,6.04603 L -10.3652,6.09389
 L -10.4026,6.14369 L -10.4367,6.19544 L -10.4676,6.24913 L -10.4952,6.30478 L -10.5196,6.36237 L -10.5407,6.42191
 L -10.5586,6.4834 L -10.5732,6.54683 L -10.5846,6.61221 L -10.5927,6.67955 L -10.5976,6.74882 L -10.5992,6.82005
 L -10.5989,6.85136 L -10.598,6.88224 L -10.5964,6.9127 L -10.5942,6.94274 L -10.5915,6.97236 L -10.588,7.00155
 L -10.584,7.03032 L -10.5793,7.05867 L -10.574,7.0866 L -10.5681,7.1141 L -10.5616,7.14118 L -10.5545,7.16784
 L -10.5467,7.19408 L -10.5383,7.21989 L -10.5293,7.24528 L -10.5196,7.27025 L -10.5094,7.2948 L -10.4985,7.31895
 L -10.4871,7.34273 L -10.4752,7.36615 L -10.4627,7.38921 L -10.4496,7.41191 L -10.436,7.43424 L -10.4219,7.4562
 L -10.4072,7.47781 L -10.3919,7.49905 L -10.3761,7.51993 L -10.3597,7.54044 L -10.3428,7.56059 L -10.3254,7.58038
 L -10.3073,7.59981 L -10.2888,7.61887 L -10.2696,7.63756 L -10.25,7.6559 L -10.2296,7.67395 L -10.2084,7.6918
 L -10.1863,7.70944 L -10.1633,7.72689 L -10.1395,7.74414 L -10.1149,7.76119 L -10.0894,7.77805 L -10.063,7.7947
 L -10.0358,7.81115 L -10.0077,7.8274 L -9.97877,7.84346 L -9.94897,7.85931 L -9.91833,7.87497 L -9.88682,7.89043
 L -9.85446,7.90568 L -9.82125,7.92074 L -9.78717,7.9356 L -9.75172,7.95036 L -9.71439,7.96512 L -9.67516,7.97988
 L -9.63404,7.99463 L -9.59103,8.00939 L -9.54614,8.02415 L -9.49935,8.03891 L -9.45068,8.05367 L -9.40012,8.06843
 L -9.34767,8.08319 L -9.29333,8.09795 L -9.2371,8.11271 L -9.17898,8.12746 L -9.11898,8.14222 L -9.05708,8.15698
 L -8.9933,8.17174 L -8.92762,8.1865 L -8.88953,8.19524 L -8.85183,8.20391 L -8.81454,8.21251 L -8.77764,8.22104
 L -8.74114,8.2295 L -8.70504,8.23789 L -8.66934,8.24621 L -8.63404,8.25446 L -8.59914,8.26264 L -8.56463,8.27075
 L -8.53053,8.27879 L -8.49682,8.28676 L -8.46351,8.29466 L -8.4306,8.30249 L -8.3981,8.31024 L -8.36599,8.31793
 L -8.33427,8.32555 L -8.30302,8.33323 L -8.27228,8.34113 L -8.24206,8.34923 L -8.21236,8.35755 L -8.18317,8.36607
 L -8.1545,8.37481 L -8.12634,8.38376 L -8.0987,8.39293 L -8.07158,8.4023 L -8.04497,8.41189 L -8.01888,8.42168
 L -7.9933,8.43169 L -7.96825,8.44191 L -7.9437,8.45234 L -7.91968,8.46298 L -7.89617,8.47383 L -7.87317,8.4849
 L -7.85073,8.49624 L -7.82889,8.50793 L -7.80764,8.51998 L -7.787,8.53238 L -7.76695,8.54513 L -7.7475,8.55823
 L -7.72865,8.57168 L -7.7104,8.58549 L -7.69275,8.59965 L -7.67569,8.61416 L -7.65924,8.62902 L -7.64338,8.64424
 L -7.62812,8.65981 L -7.61346,8.67573 L -7.5994,8.692 L -7.58594,8.70862 L -7.57307,8.7256 L -7.56088,8.74306
 L -7.54942,8.76113 L -7.53871,8.7798 L -7.52873,8.79909 L -7.51949,8.81899 L -7.51099,8.8395 L -7.50323,8.86062
 L -7.49621,8.88234 L -7.48993,8.90468 L -7.48438,8.92763 L -7.47958,8.95119 L -7.47551,8.97536 L -7.47219,9.00014
 L -7.4696,9.02552 L -7.46775,9.05152 L -7.46664,9.07813 L -7.46627,9.10535 L -7.46745,9.15372 L -7.47099,9.20069
 L -7.47689,9.24626 L -7.48514,9.29044 L -7.49575,9.33322 L -7.50872,9.37461 L -7.52405,9.4146 L -7.54173,9.45319
 L -7.56178,9.49039 L -7.58418,9.52619 L -7.60894,9.56059 L -7.63606,9.5936 L -7.66554,9.62521 L -7.69737,9.65543
 L -7.73156,9.68425 L -7.76812,9.71167 L -7.80702,9.7377 L -7.8481,9.76228 L -7.89117,9.78538 L -7.93621,9.80698
 L -7.98324,9.8271 L -8.03225,9.84572 L -8.08325,9.86286 L -8.13623,9.8785 L -8.19119,9.89266 L -8.24813,9.90532
 L -8.30706,9.9165 L -8.36797,9.92618 L -8.43086,9.93437 L -8.49574,9.94108 L -8.5626,9.94629 L -8.63144,9.95002
 L -8.70227,9.95225 L -8.77507,9.953 L -8.84559,9.9523 L -8.91436,9.95021 L -8.98136,9.94672 L -9.0466,9.94183
 L -9.11008,9.93555 L -9.1718,9.92787 L -9.23177,9.91879 L -9.28997,9.90832 L -9.34641,9.89645 L -9.4011,9.88319
 L -9.45402,9.86853 L -9.50519,9.85247 L -9.55459,9.83502 L -9.60224,9.81617 L -9.64813,9.79593 L -9.69226,9.77429
 L -9.73462,9.75125 L -9.77526,9.72672 L -9.81421,9.70061 L -9.85147,9.67292 L -9.88704,9.64364 L -9.92092,9.61278
 L -9.95311,9.58033 L -9.98361,9.5463 L -10.0124,9.51069 L -10.0395,9.47349 L -10.065,9.43471 L -10.0887,9.39435
 L -10.1108,9.3524 L -10.1312,9.30886 L -10.1498,9.26375 L -10.1668,9.21705 L -10.1821,9.16877 L -10.1957,9.1189
 L -10.823,9.24435 L -10.7852,9.38296 L -10.7372,9.51316 L -10.6791,9.63497 L -10.6109,9.74837 L -10.5324,9.85337
 L -10.4438,9.94998 L -10.3451,10.0382 L -10.2362,10.118 L -10.1171,10.1894 L -9.98789,10.2524 L -9.8485,10.307
 L -9.69894,10.3532 L -9.53923,10.391 L -9.36936,10.4204 L -9.18932,10.4414 L -8.99913,10.454 L -8.79877,10.4582
 z
M 9.18277,6.14195 L 10.8238,6.14195 L 10.8238,5.613 L 6.89747,5.613 L 6.89747,6.14195 L 8.53857,6.14195
 L 8.53857,10.3904 L 9.18277,10.3904 z
M -4.06517,6.14195 L -2.42412,6.14195 L -2.42412,5.613 L -6.35047,5.613 L -6.35047,6.14195 L -4.70937,6.14195
 L -4.70937,10.3904 L -4.06517,10.3904 z
M 3.06922,8.4069 L 4.55767,8.4069 L 5.79867,10.3904 L 6.54462,10.3904 L 5.18837,8.3323 L 5.25178,8.3202
 L 5.31355,8.30625 L 5.37369,8.29045 L 5.4322,8.27279 L 5.48908,8.25328 L 5.54433,8.23191 L 5.59795,8.20869
 L 5.64994,8.18362 L 5.7003,8.15669 L 5.74903,8.12791 L 5.79613,8.09728 L 5.84159,8.06479 L 5.88543,8.03045
 L 5.92764,7.99426 L 5.96821,7.95621 L 6.00716,7.9163 L 6.04447,7.87455 L 6.0799,7.83128 L 6.11318,7.78684
 L 6.14431,7.74122 L 6.1733,7.69444 L 6.20014,7.64647 L 6.22483,7.59734 L 6.24737,7.54703 L 6.26777,7.49555
 L 6.28602,7.4429 L 6.30212,7.38908 L 6.31608,7.33408 L 6.32789,7.2779 L 6.33755,7.22056 L 6.34506,7.16204
 L 6.35043,7.10235 L 6.35365,7.04149 L 6.35472,6.97945 L 6.3532,6.90464 L 6.34865,6.83178 L 6.34105,6.76089
 L 6.33041,6.69195 L 6.31674,6.62497 L 6.30003,6.55996 L 6.28028,6.4969 L 6.25748,6.4358 L 6.23166,6.37666
 L 6.20279,6.31948 L 6.17088,6.26427 L 6.13593,6.21101 L 6.09795,6.15971 L 6.05693,6.11036 L 6.01287,6.06298
 L 5.96576,6.01756 L 5.91562,5.9741 L 5.8627,5.93287 L 5.80723,5.89413 L 5.74921,5.8579 L 5.68864,5.82416
 L 5.62553,5.79292 L 5.55987,5.76419 L 5.49167,5.73795 L 5.42092,5.71421 L 5.34762,5.69297 L 5.27178,5.67422
 L 5.19339,5.65798 L 5.11245,5.64424 L 5.02897,5.63299 L 4.94294,5.62424 L 4.85436,5.618 L 4.76324,5.61425
 L 4.66957,5.613 L 2.42162,5.613 L 2.42162,10.3904 L 3.06922,10.3904 z
M 3.06922,7.8949 L 3.06922,6.13175 L 4.60517,6.13175 L 4.66694,6.13251 L 4.72697,6.13478 L 4.78528,6.13856
 L 4.84187,6.14386 L 4.89674,6.15067 L 4.94987,6.15899 L 5.00129,6.16883 L 5.05098,6.18018 L 5.09894,6.19305
 L 5.14518,6.20742 L 5.1897,6.22332 L 5.23249,6.24072 L 5.27355,6.25964 L 5.3129,6.28007 L 5.35051,6.30202
 L 5.38641,6.32548 L 5.42057,6.35045 L 5.45291,6.37687 L 5.48328,6.40465 L 5.51169,6.43382 L 5.53815,6.46435
 L 5.56264,6.49625 L 5.58517,6.52953 L 5.60575,6.56419 L 5.62436,6.60021 L 5.64102,6.63761 L 5.65572,6.67638
 L 5.66845,6.71652 L 5.67923,6.75803 L 5.68805,6.80092 L 5.69491,6.84518 L 5.69981,6.89082 L 5.70274,6.93782
 L 5.70372,6.9862 L 5.70276,7.0362 L 5.69985,7.08487 L 5.69501,7.13221 L 5.68824,7.17823 L 5.67952,7.22292
 L 5.66888,7.26629 L 5.65629,7.30833 L 5.64177,7.34905 L 5.62532,7.38844 L 5.60693,7.42651 L 5.5866,7.46325
 L 5.56433,7.49866 L 5.54013,7.53275 L 5.514,7.56551 L 5.48593,7.59695 L 5.45592,7.62706 L 5.42397,7.65585
 L 5.39026,7.68315 L 5.35495,7.70879 L 5.31802,7.73278 L 5.27949,7.75511 L 5.23935,7.77579 L 5.1976,7.79481
 L 5.15425,7.81218 L 5.10928,7.8279 L 5.06271,7.84196 L 5.01453,7.85437 L 4.96475,7.86512 L 4.91336,7.87422
 L 4.86035,7.88167 L 4.80575,7.88745 L 4.74953,7.89159 L 4.69171,7.89407 L 4.63227,7.8949 z
M -1.54572,8.99345 L 0.631024,8.99345 L 1.17692,10.3904 L 1.83812,10.3904 L -0.0809746,5.613 L -0.816774,5.613
 L -2.76637,10.3904 L -2.09502,10.3904 z
M -1.34907,8.48825 L -0.738774,6.9184 L -0.719509,6.86709 L -0.700807,6.81689 L -0.682669,6.76779 L -0.665092,6.71979
 L -0.648081,6.67289 L -0.631632,6.6271 L -0.615746,6.58241 L -0.600425,6.53883 L -0.585666,6.49635 L -0.57147,6.45497
 L -0.557837,6.41469 L -0.544769,6.37552 L -0.532264,6.33745 L -0.520321,6.30048 L -0.508943,6.26462 L -0.498127,6.22986
 L -0.487875,6.1962 L -0.457325,6.10125 L -0.365774,6.3827 L -0.354609,6.41719 L -0.343445,6.45125 L -0.332279,6.4849
 L -0.321113,6.51812 L -0.309947,6.55092 L -0.29878,6.5833 L -0.287613,6.61526 L -0.276445,6.64679 L -0.265278,6.6779
 L -0.25411,6.70859 L -0.242942,6.73886 L -0.231773,6.76871 L -0.220604,6.79813 L -0.209435,6.82713 L -0.198265,6.85571
 L -0.187095,6.88387 L -0.175924,6.9116 L 0.437775,8.48825 z
" stroke="black" fill="lightgray" stroke-width="0.5"/>
</svg>
