<?xml version="1.0" standalone="no"?>
<!DOCTYPE svg PUBLIC "-//W3C//DTD SVG 1.1//EN" "http://www.w3.org/Graphics/SVG/1.1/DTD/svg11.dtd">
<svg width="30mm" height="20mm" viewBox="-15 -9 30 20" xmlns="http://www.w3.org/2000/svg" version="1.1">
<title>OpenSCAD Model</title>
<path d="
M -12.9019,3.99759 L -12.804,3.99037 L -12.7065,3.97835 L -12.6098,3.96157 L -12.514,3.94006 L -12.4194,3.91388
 L -12.3262,3.88309 L -12.2346,3.84776 L -12.1449,3.80798 L -12.0572,3.76384 L -11.9718,3.71546 L -11.8889,3.66294
 L -11.8086,3.60641 L -11.7312,3.54602 L -11.6569,3.4819 L -11.5858,3.41421 L -2.58579,-5.58579 L -2.5181,-5.65688
 L -2.45398,-5.73121 L -2.39358,-5.8086 L -2.33706,-5.88886 L -2.28454,-5.97179 L -2.23616,-6.05721 L -2.19202,-6.14489
 L -2.15224,-6.23463 L -2.11691,-6.32622 L -2.08612,-6.41943 L -2.05994,-6.51404 L -2.03843,-6.60982 L -2.02165,-6.70654
 L -2.00963,-6.80397 L -2.00241,-6.90186 L -2,-7 L -2.00241,-7.09813 L -2.00963,-7.19603 L -2.02165,-7.29346
 L -2.03843,-7.39018 L -2.05994,-7.48596 L -2.08612,-7.58057 L -2.11691,-7.67378 L -2.15224,-7.76537 L -2.19202,-7.85511
 L -2.23616,-7.94279 L -2.28454,-8.0282 L -2.33706,-8.11114 L -2.39358,-8.1914 L -2.45398,-8.26879 L -2.5181,-8.34312
 L -2.58579,-8.41421 L -2.65688,-8.4819 L -2.73121,-8.54602 L -2.8086,-8.60641 L -2.88886,-8.66294 L -2.97179,-8.71546
 L -3.05721,-8.76384 L -3.14489,-8.80798 L -3.23463,-8.84776 L -3.32622,-8.88309 L -3.41943,-8.91388 L -3.51404,-8.94006
 L -3.60982,-8.96157 L -3.70654,-8.97835 L -3.80397,-8.99037 L -3.90186,-8.99759 L -4,-9 L -4.09813,-8.99759
 L -4.19603,-8.99037 L -4.29346,-8.97835 L -4.39018,-8.96157 L -4.48596,-8.94006 L -4.58057,-8.91388 L -4.67378,-8.88309
 L -4.76537,-8.84776 L -4.85511,-8.80798 L -4.94279,-8.76384 L -5.0282,-8.71546 L -5.11114,-8.66294 L -5.1914,-8.60641
 L -5.26879,-8.54602 L -5.34312,-8.4819 L -5.41421,-8.41421 L -14.4142,0.585786 L -14.4819,0.656881 L -14.546,0.731213
 L -14.6064,0.808601 L -14.6629,0.888859 L -14.7155,0.971794 L -14.7638,1.05721 L -14.808,1.14489 L -14.8478,1.23463
 L -14.8831,1.32622 L -14.9139,1.41943 L -14.9401,1.51404 L -14.9616,1.60982 L -14.9784,1.70654 L -14.9904,1.80397
 L -14.9976,1.90186 L -15,2 L -14.9976,2.09813 L -14.9904,2.19603 L -14.9784,2.29346 L -14.9616,2.39018
 L -14.9401,2.48596 L -14.9139,2.58057 L -14.8831,2.67378 L -14.8478,2.76537 L -14.808,2.85511 L -14.7638,2.94279
 L -14.7155,3.0282 L -14.6629,3.11114 L -14.6064,3.1914 L -14.546,3.26879 L -14.4819,3.34312 L -14.4142,3.41421
 L -14.3431,3.4819 L -14.2688,3.54602 L -14.1914,3.60641 L -14.1111,3.66294 L -14.0282,3.71546 L -13.9428,3.76384
 L -13.8551,3.80798 L -13.7654,3.84776 L -13.6738,3.88309 L -13.5806,3.91388 L -13.486,3.94006 L -13.3902,3.96157
 L -13.2935,3.97835 L -13.196,3.99037 L -13.0981,3.99759 L -13,4 z
M 4.09813,3.99759 L 4.19603,3.99037 L 4.29346,3.97835 L 4.39018,3.96157 L 4.48596,3.94006 L 4.58057,3.91388
 L 4.67378,3.88309 L 4.76537,3.84776 L 4.85511,3.80798 L 4.94279,3.76384 L 5.0282,3.71546 L 5.11114,3.66294
 L 5.1914,3.60641 L 5.26879,3.54602 L 5.34312,3.4819 L 5.41421,3.41421 L 14.4142,-5.58579 L 14.4819,-5.65688
 L 14.546,-5.73121 L 14.6064,-5.8086 L 14.6629,-5.88886 L 14.7155,-5.97179 L 14.7638,-6.05721 L 14.808,-6.14489
 L 14.8478,-6.23463 L 14.8831,-6.32622 L 14.9139,-6.41943 L 14.9401,-6.51404 L 14.9616,-6.60982 L 14.9784,-6.70654
 L 14.9904,-6.80397 L 14.9976,-6.90186 L 15,-7 L 14.9976,-7.09813 L 14.9904,-7.19603 L 14.9784,-7.29346
 L 14.9616,-7.39018 L 14.9401,-7.48596 L 14.9139,-7.58057 L 14.8831,-7.67378 L 14.8478,-7.76537 L 14.808,-7.85511
 L 14.7638,-7.94279 L 14.7155,-8.0282 L 14.6629,-8.11114 L 14.6064,-8.1914 L 14.546,-8.26879 L 14.4819,-8.34312
 L 14.4142,-8.41421 L 14.3431,-8.4819 L 14.2688,-8.54602 L 14.1914,-8.60641 L 14.1111,-8.66294 L 14.0282,-8.71546
 L 13.9428,-8.76384 L 13.8551,-8.80798 L 13.7654,-8.84776 L 13.6738,-8.88309 L 13.5806,-8.91388 L 13.486,-8.94006
 L 13.3902,-8.96157 L 13.2935,-8.97835 L 13.196,-8.99037 L 13.0981,-8.99759 L 13,-9 L 12.9019,-8.99759
 L 12.804,-8.99037 L 12.7065,-8.97835 L 12.6098,-8.96157 L 12.514,-8.94006 L 12.4194,-8.91388 L 12.3262,-8.88309
 L 12.2346,-8.84776 L 12.1449,-8.80798 L 12.0572,-8.76384 L 11.9718,-8.71546 L 11.8889,-8.66294 L 11.8086,-8.60641
 L 11.7312,-8.54602 L 11.6569,-8.4819 L 11.5858,-8.41421 L 2.58579,0.585786 L 2.5181,0.656881 L 2.45398,0.731213
 L 2.39358,0.808601 L 2.33706,0.888859 L 2.28454,0.971794 L 2.23616,1.05721 L 2.19202,1.14489 L 2.15224,1.23463
 L 2.11691,1.32622 L 2.08612,1.41943 L 2.05994,1.51404 L 2.03843,1.60982 L 2.02165,1.70654 L 2.00963,1.80397
 L 2.00241,1.90186 L 2,2 L 2.00241,2.09813 L 2.00963,2.19603 L 2.02165,2.29346 L 2.03843,2.39018
 L 2.05994,2.48596 L 2.08612,2.58057 L 2.11691,2.67378 L 2.15224,2.76537 L 2.19202,2.85511 L 2.23616,2.94279
 L 2.28454,3.0282 L 2.33706,3.11114 L 2.39358,3.1914 L 2.45398,3.26879 L 2.5181,3.34312 L 2.58579,3.41421
 L 2.65688,3.4819 L 2.73121,3.54602 L 2.8086,3.60641 L 2.88886,3.66294 L 2.97179,3.71546 L 3.05721,3.76384
 L 3.14489,3.80798 L 3.23463,3.84776 L 3.32622,3.88309 L 3.41943,3.91388 L 3.51404,3.94006 L 3.60982,3.96157
 L 3.70654,3.97835 L 3.80397,3.99037 L 3.90186,3.99759 L 4,4 z
M 6.93738,10.4571 L 7.01857,10.4537 L 7.09858,10.4482 L 7.1774,10.4404 L 7.25504,10.4303 L 7.33149,10.4181
 L 7.40676,10.4036 L 7.48084,10.3869 L 7.55374,10.3679 L 7.62545,10.3467 L 7.69598,10.3233 L 7.76532,10.2977
 L 7.83347,10.2698 L 7.90045,10.2398 L 7.96623,10.2074 L 8.03083,10.1729 L 8.09425,10.1361 L 8.15625,10.0972
 L 8.2166,10.0562 L 8.27529,10.0132 L 8.33233,9.96819 L 8.38771,9.92111 L 8.44144,9.87199 L 8.49352,9.82082
 L 8.54394,9.76762 L 8.5927,9.71237 L 8.63981,9.65508 L 8.68527,9.59575 L 8.72907,9.53438 L 8.77121,9.47097
 L 8.8117,9.40551 L 8.85054,9.33802 L 8.88772,9.26848 L 8.92325,9.1969 L 8.39435,8.93245 L 8.33319,9.04589
 L 8.26858,9.15245 L 8.20052,9.25214 L 8.12901,9.34495 L 8.05405,9.43089 L 7.97565,9.50996 L 7.89379,9.58214
 L 7.80848,9.64746 L 7.71973,9.7059 L 7.62752,9.75746 L 7.53187,9.80215 L 7.43276,9.83996 L 7.33021,9.8709
 L 7.22421,9.89496 L 7.11475,9.91215 L 7.00185,9.92246 L 6.8855,9.9259 L 6.79447,9.92405 L 6.70569,9.91851
 L 6.61914,9.90927 L 6.53484,9.89634 L 6.45278,9.87971 L 6.37295,9.85938 L 6.29537,9.83536 L 6.22003,9.80764
 L 6.14693,9.77623 L 6.07607,9.74112 L 6.00745,9.70232 L 5.94107,9.65982 L 5.87694,9.61363 L 5.81504,9.56374
 L 5.75539,9.51016 L 5.69797,9.45288 L 5.6428,9.3919 L 5.59034,9.32788 L 5.54106,9.26148 L 5.49496,9.19269
 L 5.45205,9.12153 L 5.4123,9.04798 L 5.37574,8.97205 L 5.34236,8.89374 L 5.31216,8.81305 L 5.28514,8.72998
 L 5.26129,8.64452 L 5.24063,8.55669 L 5.22314,8.46647 L 5.20883,8.37387 L 5.19771,8.27888 L 5.18976,8.18152
 L 5.18499,8.08178 L 5.1834,7.97965 L 5.18493,7.87645 L 5.1895,7.77586 L 5.19713,7.67789 L 5.2078,7.58254
 L 5.22153,7.4898 L 5.2383,7.39968 L 5.25813,7.31217 L 5.281,7.22729 L 5.30693,7.14502 L 5.33591,7.06536
 L 5.36794,6.98833 L 5.40301,6.9139 L 5.44114,6.8421 L 5.48232,6.77291 L 5.52654,6.70634 L 5.57382,6.64239
 L 5.62415,6.58105 L 5.67723,6.52278 L 5.73275,6.46804 L 5.79071,6.41684 L 5.85111,6.36916 L 5.91395,6.32502
 L 5.97923,6.2844 L 6.04695,6.24732 L 6.11712,6.21377 L 6.18972,6.18376 L 6.26476,6.15727 L 6.34225,6.13432
 L 6.42217,6.11489 L 6.50453,6.099 L 6.58934,6.08664 L 6.67659,6.07781 L 6.76627,6.07252 L 6.8584,6.07075
 L 6.91736,6.07151 L 6.97537,6.0738 L 7.03243,6.07761 L 7.08854,6.08295 L 7.14369,6.08982 L 7.1979,6.0982
 L 7.25116,6.10812 L 7.30346,6.11956 L 7.35482,6.13252 L 7.40523,6.14701 L 7.45468,6.16303 L 7.50319,6.18057
 L 7.55074,6.19963 L 7.59734,6.22023 L 7.643,6.24234 L 7.6877,6.26598 L 7.73145,6.29115 L 7.77403,6.31775
 L 7.81522,6.34572 L 7.85501,6.37505 L 7.89341,6.40573 L 7.93041,6.43778 L 7.96601,6.47119 L 8.00022,6.50596
 L 8.03303,6.5421 L 8.06444,6.57959 L 8.09446,6.61845 L 8.12309,6.65866 L 8.15031,6.70024 L 8.17614,6.74318
 L 8.20058,6.78748 L 8.22361,6.83314 L 8.24525,6.88017 L 8.2655,6.92855 L 8.8792,6.72515 L 8.84994,6.65714
 L 8.8188,6.59112 L 8.78578,6.52709 L 8.75089,6.46506 L 8.71412,6.40503 L 8.67547,6.34699 L 8.63494,6.29094
 L 8.59254,6.23689 L 8.54826,6.18483 L 8.50211,6.13477 L 8.45407,6.08671 L 8.40416,6.04064 L 8.35237,5.99656
 L 8.29871,5.95448 L 8.24317,5.91439 L 8.18575,5.8763 L 8.12645,5.8402 L 8.06535,5.80613 L 8.00252,5.77412
 L 7.93795,5.74417 L 7.87164,5.7163 L 7.80359,5.69048 L 7.73381,5.66673 L 7.6623,5.64505 L 7.58904,5.62543
 L 7.51405,5.60788 L 7.43732,5.59239 L 7.35886,5.57897 L 7.27866,5.56761 L 7.19672,5.55832 L 7.11304,5.55109
 L 7.02763,5.54593 L 6.94048,5.54283 L 6.8516,5.5418 L 6.7248,5.54404 L 6.60128,5.55076 L 6.48104,5.56197
 L 6.36409,5.57765 L 6.25043,5.59782 L 6.14005,5.62247 L 6.03296,5.6516 L 5.92915,5.68521 L 5.82862,5.72331
 L 5.73139,5.76588 L 5.63743,5.81294 L 5.54676,5.86448 L 5.45938,5.9205 L 5.37528,5.981 L 5.29447,6.04599
 L 5.21694,6.11545 L 5.1427,6.1894 L 5.07224,6.2673 L 5.00605,6.34863 L 4.94413,6.43338 L 4.88649,6.52156
 L 4.83311,6.61316 L 4.784,6.7082 L 4.73916,6.80665 L 4.69859,6.90854 L 4.6623,7.01384 L 4.63027,7.12258
 L 4.60251,7.23474 L 4.57903,7.35033 L 4.55981,7.46934 L 4.54487,7.59178 L 4.53419,7.71764 L 4.52778,7.84693
 L 4.52565,7.97965 L 4.52661,8.06869 L 4.52947,8.15632 L 4.53425,8.24252 L 4.54095,8.3273 L 4.54955,8.41067
 L 4.56007,8.49261 L 4.5725,8.57314 L 4.58684,8.65224 L 4.60309,8.72993 L 4.62125,8.80619 L 4.64133,8.88104
 L 4.66332,8.95446 L 4.68722,9.02647 L 4.71304,9.09706 L 4.74076,9.16622 L 4.7704,9.23397 L 4.80195,9.3003
 L 4.83533,9.36503 L 4.87045,9.42797 L 4.9073,9.48913 L 4.94589,9.54851 L 4.98621,9.6061 L 5.02827,9.66191
 L 5.07207,9.71594 L 5.11761,9.76818 L 5.16488,9.81865 L 5.21388,9.86732 L 5.26463,9.91422 L 5.31711,9.95933
 L 5.37132,10.0027 L 5.42727,10.0442 L 5.48496,10.084 L 5.54439,10.122 L 5.60555,10.1581 L 5.66825,10.1924
 L 5.73231,10.2246 L 5.79771,10.2547 L 5.86446,10.2827 L 5.93256,10.3087 L 6.00201,10.3326 L 6.07281,10.3544
 L 6.14496,10.3741 L 6.21845,10.3918 L 6.2933,10.4073 L 6.3695,10.4208 L 6.44704,10.4322 L 6.52593,10.4416
 L 6.60618,10.4489 L 6.68777,10.454 L 6.77071,10.4572 L 6.855,10.4582 z
M -11.1363,10.4569 L -11.0302,10.4532 L -10.927,10.4469 L -10.8267,10.4381 L -10.7293,10.4268 L -10.6349,10.413
 L -10.5434,10.3967 L -10.4548,10.3779 L -10.3692,10.3565 L -10.2864,10.3327 L -10.2066,10.3063 L -10.1297,10.2774
 L -10.0557,10.246 L -9.98468,10.2121 L -9.91655,10.1757 L -9.85134,10.1368 L -9.78905,10.0954 L -9.73,10.0517
 L -9.67454,10.0059 L -9.62265,9.95806 L -9.57434,9.90815 L -9.5296,9.85618 L -9.48845,9.80214 L -9.45088,9.74604
 L -9.41688,9.68787 L -9.38646,9.62764 L -9.35962,9.56534 L -9.33636,9.50098 L -9.31668,9.43455 L -9.30058,9.36606
 L -9.28805,9.29551 L -9.27911,9.22289 L -9.27374,9.1482 L -9.27195,9.07145 L -9.2722,9.04097 L -9.27296,9.01095
 L -9.27422,8.98141 L -9.27599,8.95234 L -9.27826,8.92373 L -9.28103,8.8956 L -9.28431,8.86793 L -9.28809,8.84073
 L -9.29238,8.81401 L -9.29717,8.78775 L -9.30247,8.76196 L -9.30827,8.73665 L -9.31458,8.7118 L -9.32139,8.68742
 L -9.32871,8.66351 L -9.33652,8.64007 L -9.34485,8.6171 L -9.35362,8.59454 L -9.36278,8.57233 L -9.37232,8.55048
 L -9.38225,8.52897 L -9.39257,8.50782 L -9.40328,8.48702 L -9.41437,8.46657 L -9.42585,8.44648 L -9.43772,8.42673
 L -9.44997,8.40734 L -9.46262,8.3883 L -9.47565,8.36961 L -9.48906,8.35128 L -9.50287,8.33329 L -9.51706,8.31566
 L -9.53163,8.29838 L -9.5466,8.28145 L -9.56192,8.26484 L -9.57755,8.24854 L -9.5935,8.23255 L -9.60977,8.21686
 L -9.62636,8.20147 L -9.64326,8.1864 L -9.66048,8.17162 L -9.67801,8.15716 L -9.69587,8.14299 L -9.71404,8.12914
 L -9.73252,8.11559 L -9.75133,8.10234 L -9.77045,8.0894 L -9.78988,8.07677 L -9.80964,8.06444 L -9.82971,8.05242
 L -9.8501,8.0407 L -9.87073,8.02922 L -9.89153,8.01791 L -9.91252,8.00678 L -9.93367,7.99583 L -9.95501,7.98505
 L -9.97652,7.97445 L -9.9982,7.96402 L -10.0201,7.95377 L -10.0421,7.9437 L -10.0643,7.9338 L -10.0867,7.92408
 L -10.1093,7.91453 L -10.132,7.90516 L -10.1549,7.89597 L -10.178,7.88695 L -10.2013,7.87811 L -10.2247,7.86945
 L -10.2483,7.86094 L -10.2721,7.85258 L -10.2959,7.84435 L -10.3199,7.83627 L -10.344,7.82833 L -10.3683,7.82053
 L -10.3927,7.81286 L -10.4172,7.80534 L -10.4418,7.79797 L -10.4666,7.79073 L -10.4914,7.78363 L -10.5165,7.77667
 L -10.5416,7.76986 L -10.5669,7.76318 L -10.5923,7.75665 L -10.6178,7.75025 L -10.6435,7.744 L -10.6692,7.73782
 L -10.695,7.73166 L -10.7207,7.72551 L -10.7465,7.71936 L -10.7723,7.71323 L -10.7981,7.70712 L -10.8239,7.70101
 L -10.8497,7.69492 L -10.8755,7.68884 L -10.9014,7.68276 L -10.9272,7.67671 L -10.9531,7.67066 L -10.9789,7.66462
 L -11.0048,7.6586 L -11.0307,7.65259 L -11.0566,7.64659 L -11.0825,7.6406 L -11.1584,7.6236 L -11.2313,7.60693
 L -11.3011,7.59057 L -11.3679,7.57452 L -11.4317,7.5588 L -11.4924,7.54339 L -11.5501,7.52829 L -11.6048,7.51352
 L -11.6565,7.49906 L -11.7051,7.48492 L -11.7507,7.47109 L -11.7933,7.45759 L -11.8328,7.44439 L -11.8693,7.43152
 L -11.9028,7.41896 L -11.9333,7.40672 L -11.9607,7.3948 L -11.9863,7.38288 L -12.0112,7.37065 L -12.0353,7.35812
 L -12.0587,7.34528 L -12.0815,7.33214 L -12.1034,7.31869 L -12.1247,7.30494 L -12.1453,7.29088 L -12.1651,7.27652
 L -12.1843,7.26185 L -12.2027,7.24688 L -12.2204,7.2316 L -12.2374,7.21602 L -12.2536,7.20014 L -12.2692,7.18395
 L -12.284,7.16745 L -12.2981,7.15065 L -12.3115,7.13343 L -12.324,7.11569 L -12.3358,7.09741 L -12.3467,7.07861
 L -12.3568,7.05928 L -12.3661,7.03943 L -12.3746,7.01904 L -12.3823,6.99813 L -12.3892,6.97669 L -12.3953,6.95472
 L -12.4005,6.93222 L -12.405,6.9092 L -12.4086,6.88564 L -12.4115,6.86156 L -12.4135,6.83695 L -12.4147,6.81182
 L -12.4151,6.78615 L -12.4141,6.74252 L -12.4109,6.70018 L -12.4057,6.65913 L -12.3984,6.61937 L -12.389,6.5809
 L -12.3775,6.54372 L -12.3639,6.50784 L -12.3483,6.47324 L -12.3305,6.43993 L -12.3107,6.40792 L -12.2888,6.37719
 L -12.2647,6.34776 L -12.2386,6.31962 L -12.2105,6.29276 L -12.1802,6.2672 L -12.1478,6.24293 L -12.1133,6.21995
 L -12.0769,6.19827 L -12.0386,6.1779 L -11.9984,6.15884 L -11.9563,6.1411 L -11.9124,6.12467 L -11.8665,6.10956
 L -11.8188,6.09576 L -11.7692,6.08327 L -11.7178,6.0721 L -11.6644,6.06225 L -11.6092,6.05371 L -11.5521,6.04648
 L -11.4932,6.04056 L -11.4323,6.03596 L -11.3696,6.03268 L -11.305,6.03071 L -11.2385,6.03005 L -11.1779,6.03064
 L -11.1188,6.03242 L -11.0613,6.03538 L -11.0054,6.03953 L -10.9511,6.04486 L -10.8983,6.05138 L -10.8471,6.05908
 L -10.7974,6.06797 L -10.7493,6.07805 L -10.7029,6.08931 L -10.6579,6.10175 L -10.6146,6.11538 L -10.5728,6.13019
 L -10.5326,6.14619 L -10.494,6.16338 L -10.4569,6.18174 L -10.4214,6.2013 L -10.3874,6.22216 L -10.3546,6.24447
 L -10.3232,6.26822 L -10.2931,6.29341 L -10.2643,6.32005 L -10.2368,6.34813 L -10.2107,6.37765 L -10.1858,6.40861
 L -10.1623,6.44102 L -10.14,6.47487 L -10.1191,6.51017 L -10.0996,6.54691 L -10.0813,6.58509 L -10.0643,6.62471
 L -10.0487,6.66578 L -10.0343,6.70829 L -10.0213,6.75225 L -9.38385,6.64035 L -9.40509,6.57096 L -9.42811,6.50401
 L -9.45291,6.43948 L -9.4795,6.37738 L -9.50787,6.3177 L -9.53803,6.26046 L -9.56996,6.20564 L -9.60368,6.15326
 L -9.63919,6.1033 L -9.67647,6.05577 L -9.71554,6.01067 L -9.75639,5.96799 L -9.79903,5.92775 L -9.84345,5.88993
 L -9.88965,5.85454 L -9.93763,5.82158 L -9.9874,5.79105 L -10.0394,5.76259 L -10.094,5.73585 L -10.1513,5.71084
 L -10.2112,5.68755 L -10.2738,5.66599 L -10.3391,5.64616 L -10.407,5.62805 L -10.4775,5.61166 L -10.5507,5.597
 L -10.6266,5.58406 L -10.7051,5.57285 L -10.7862,5.56336 L -10.87,5.5556 L -10.9565,5.54956 L -11.0456,5.54525
 L -11.1373,5.54266 L -11.2317,5.5418 L -11.3333,5.54295 L -11.432,5.5464 L -11.5279,5.55215 L -11.621,5.5602
 L -11.7113,5.57055 L -11.7988,5.58319 L -11.8835,5.59814 L -11.9654,5.61539 L -12.0444,5.63494 L -12.1207,5.65678
 L -12.1942,5.68093 L -12.2649,5.70737 L -12.3327,5.73612 L -12.3978,5.76717 L -12.46,5.80051 L -12.5195,5.83615
 L -12.5761,5.8741 L -12.6298,5.91416 L -12.6801,5.95617 L -12.7273,6.00013 L -12.7711,6.04603 L -12.8118,6.09389
 L -12.8491,6.14369 L -12.8833,6.19544 L -12.9141,6.24913 L -12.9418,6.30478 L -12.9661,6.36237 L -12.9873,6.42191
 L -13.0051,6.4834 L -13.0198,6.54683 L -13.0311,6.61221 L -13.0392,6.67955 L -13.0441,6.74882 L -13.0457,6.82005
 L -13.0454,6.85136 L -13.0445,6.88224 L -13.043,6.9127 L -13.0408,6.94274 L -13.038,6.97236 L -13.0346,7.00155
 L -13.0305,7.03032 L -13.0259,7.05867 L -13.0206,7.0866 L -13.0147,7.1141 L -13.0081,7.14118 L -13.001,7.16784
 L -12.9932,7.19408 L -12.9848,7.21989 L -12.9758,7.24528 L -12.9662,7.27025 L -12.9559,7.2948 L -12.9451,7.31895
 L -12.9337,7.34273 L -12.9217,7.36615 L -12.9092,7.38921 L -12.8962,7.41191 L -12.8825,7.43424 L -12.8684,7.4562
 L -12.8537,7.47781 L -12.8384,7.49905 L -12.8226,7.51993 L -12.8063,7.54044 L -12.7893,7.56059 L -12.7719,7.58038
 L -12.7539,7.59981 L -12.7353,7.61887 L -12.7162,7.63756 L -12.6965,7.6559 L -12.6761,7.67395 L -12.6549,7.6918
 L -12.6328,7.70944 L -12.6099,7.72689 L -12.5861,7.74414 L -12.5614,7.76119 L -12.5359,7.77805 L -12.5095,7.7947
 L -12.4823,7.81115 L -12.4542,7.8274 L -12.4253,7.84346 L -12.3955,7.85931 L -12.3649,7.87497 L -12.3333,7.89043
 L -12.301,7.90568 L -12.2678,7.92074 L -12.2337,7.9356 L -12.1982,7.95036 L -12.1609,7.96512 L -12.1217,7.97988
 L -12.0806,7.99463 L -12.0376,8.00939 L -11.9927,8.02415 L -11.9459,8.03891 L -11.8972,8.05367 L -11.8466,8.06843
 L -11.7942,8.08319 L -11.7399,8.09795 L -11.6836,8.11271 L -11.6255,8.12746 L -11.5655,8.14222 L -11.5036,8.15698
 L -11.4398,8.17174 L -11.3741,8.1865 L -11.3361,8.19524 L -11.2984,8.20391 L -11.2611,8.21251 L -11.2242,8.22104
 L -11.1877,8.2295 L -11.1516,8.23789 L -11.1159,8.24621 L -11.0806,8.25446 L -11.0457,8.26264 L -11.0112,8.27075
 L -10.9771,8.27879 L -10.9433,8.28676 L -10.91,8.29466 L -10.8771,8.30249 L -10.8446,8.31024 L -10.8125,8.31793
 L -10.7808,8.32555 L -10.7495,8.33323 L -10.7188,8.34113 L -10.6886,8.34923 L -10.6589,8.35755 L -10.6297,8.36607
 L -10.601,8.37481 L -10.5729,8.38376 L -10.5452,8.39293 L -10.5181,8.4023 L -10.4915,8.41189 L -10.4654,8.42168
 L -10.4398,8.43169 L -10.4148,8.44191 L -10.3902,8.45234 L -10.3662,8.46298 L -10.3427,8.47383 L -10.3197,8.4849
 L -10.2973,8.49624 L -10.2754,8.50793 L -10.2542,8.51998 L -10.2335,8.53238 L -10.2135,8.54513 L -10.194,8.55823
 L -10.1752,8.57168 L -10.1569,8.58549 L -10.1393,8.59965 L -10.1222,8.61416 L -10.1058,8.62902 L -10.0899,8.64424
 L -10.0746,8.65981 L -10.06,8.67573 L -10.0459,8.692 L -10.0325,8.70862 L -10.0196,8.7256 L -10.0074,8.74306
 L -9.99595,8.76113 L -9.98523,8.7798 L -9.97525,8.79909 L -9.96601,8.81899 L -9.95751,8.8395 L -9.94975,8.86062
 L -9.94273,8.88234 L -9.93645,8.90468 L -9.93091,8.92763 L -9.9261,8.95119 L -9.92204,8.97536 L -9.91871,9.00014
 L -9.91613,9.02552 L -9.91428,9.05152 L -9.91317,9.07813 L -9.9128,9.10535 L -9.91398,9.15372 L -9.91752,9.20069
 L -9.92341,9.24626 L -9.93166,9.29044 L -9.94228,9.33322 L -9.95525,9.37461 L -9.97057,9.4146 L -9.98826,9.45319
 L -10.0083,9.49039 L -10.0307,9.52619 L -10.0555,9.56059 L -10.0826,9.5936 L -10.1121,9.62521 L -10.1439,9.65543
 L -10.1781,9.68425 L -10.2146,9.71167 L -10.2535,9.7377 L -10.2946,9.76228 L -10.3377,9.78538 L -10.3827,9.80698
 L -10.4298,9.8271 L -10.4788,9.84572 L -10.5298,9.86286 L -10.5828,9.8785 L -10.6377,9.89266 L -10.6947,9.90532
 L -10.7536,9.9165 L -10.8145,9.92618 L -10.8774,9.93437 L -10.9423,9.94108 L -11.0091,9.94629 L -11.078,9.95002
 L -11.1488,9.95225 L -11.2216,9.953 L -11.2921,9.9523 L -11.3609,9.95021 L -11.4279,9.94672 L -11.4931,9.94183
 L -11.5566,9.93555 L -11.6183,9.92787 L -11.6783,9.91879 L -11.7365,9.90832 L -11.7929,9.89645 L -11.8476,9.88319
 L -11.9005,9.86853 L -11.9517,9.85247 L -12.0011,9.83502 L -12.0488,9.81617 L -12.0947,9.79593 L -12.1388,9.77429
 L -12.1811,9.75125 L -12.2218,9.72672 L -12.2607,9.70061 L -12.298,9.67292 L -12.3336,9.64364 L -12.3674,9.61278
 L -12.3996,9.58033 L -12.4301,9.5463 L -12.459,9.51069 L -12.4861,9.47349 L -12.5115,9.43471 L -12.5353,9.39435
 L -12.5573,9.3524 L -12.5777,9.30886 L -12.5964,9.26375 L -12.6133,9.21705 L -12.6286,9.16877 L -12.6422,9.1189
 L -13.2695,9.24435 L -13.2317,9.38296 L -13.1838,9.51316 L -13.1257,9.63497 L -13.0574,9.74837 L -12.979,9.85337
 L -12.8904,9.94998 L -12.7916,10.0382 L -12.6827,10.118 L -12.5636,10.1894 L -12.4344,10.2524 L -12.295,10.307
 L -12.1455,10.3532 L -11.9858,10.391 L -11.8159,10.4204 L -11.6358,10.4414 L -11.4457,10.454 L -11.2453,10.4582
 z
M 11.6293,6.14195 L 13.2703,6.14195 L 13.2703,5.613 L 9.344,5.613 L 9.344,6.14195 L 10.9851,6.14195
 L 10.9851,10.3904 L 11.6293,10.3904 z
M -0.689699,9.86145 L -3.1038,9.86145 L -3.1038,5.613 L -3.7514,5.613 L -3.7514,10.3904 L -0.689699,10.3904
 z
M -4.61975,9.86145 L -7.7357,9.86145 L -7.7357,8.19665 L -4.9622,8.19665 L -4.9622,7.6745 L -7.7357,7.6745
 L -7.7357,6.14195 L -4.75875,6.14195 L -4.75875,5.613 L -8.3833,5.613 L -8.3833,10.3904 L -4.61975,10.3904
 z
M 3.8743,9.86145 L 0.758349,9.86145 L 0.758349,8.19665 L 3.53185,8.19665 L 3.53185,7.6745 L 0.758349,7.6745
 L 0.758349,6.14195 L 3.7353,6.14195 L 3.7353,5.613 L 0.110749,5.613 L 0.110749,10.3904 L 3.8743,10.3904
 z
" stroke="black" fill="lightgray" stroke-width="0.5"/>
</svg>
