<?xml version="1.0" standalone="no"?>
<!DOCTYPE svg PUBLIC "-//W3C//DTD SVG 1.1//EN" "http://www.w3.org/Graphics/SVG/1.1/DTD/svg11.dtd">
<svg width="28mm" height="8mm" viewBox="-14 -4 28 8" xmlns="http://www.w3.org/2000/svg" version="1.1">
<title>OpenSCAD Model</title>
<path d="
M 10.1717,3.49578 L 10.3431,3.48315 L 10.5136,3.46212 L 10.6828,3.43275 L 10.8504,3.39511 L 11.016,3.34929
 L 11.1791,3.2954 L 11.3394,3.23358 L 11.4964,3.16396 L 11.6499,3.08672 L 11.7994,3.00205 L 11.9445,2.91014
 L 12.0849,2.81123 L 12.2204,2.70554 L 12.3505,2.59333 L 12.4749,2.47487 L 12.5933,2.35046 L 12.7055,2.22038
 L 12.8112,2.08495 L 12.9101,1.9445 L 13.002,1.79936 L 13.0867,1.64989 L 13.164,1.49644 L 13.2336,1.33939
 L 13.2954,1.17911 L 13.3493,1.016 L 13.3951,0.85043 L 13.4327,0.682816 L 13.4621,0.513556 L 13.4831,0.34306
 L 13.4958,0.171737 L 13.5,-0 L 13.4958,-0.171737 L 13.4831,-0.34306 L 13.4621,-0.513556 L 13.4327,-0.682816
 L 13.3951,-0.85043 L 13.3493,-1.016 L 13.2954,-1.17911 L 13.2336,-1.33939 L 13.164,-1.49644 L 13.0867,-1.64989
 L 13.002,-1.79936 L 12.9101,-1.9445 L 12.8112,-2.08495 L 12.7055,-2.22038 L 12.5933,-2.35046 L 12.4749,-2.47487
 L 12.3505,-2.59333 L 12.2204,-2.70554 L 12.0849,-2.81123 L 11.9445,-2.91014 L 11.7994,-3.00205 L 11.6499,-3.08672
 L 11.4964,-3.16396 L 11.3394,-3.23358 L 11.1791,-3.2954 L 11.016,-3.34929 L 10.8504,-3.39511 L 10.6828,-3.43275
 L 10.5136,-3.46212 L 10.3431,-3.48315 L 10.1717,-3.49578 L 10,-3.5 L -10,-3.5 L -10.1717,-3.49578
 L -10.3431,-3.48315 L -10.5136,-3.46212 L -10.6828,-3.43275 L -10.8504,-3.39511 L -11.016,-3.34929 L -11.1791,-3.2954
 L -11.3394,-3.23358 L -11.4964,-3.16396 L -11.6499,-3.08672 L -11.7994,-3.00205 L -11.9445,-2.91014 L -12.0849,-2.81123
 L -12.2204,-2.70554 L -12.3505,-2.59333 L -12.4749,-2.47487 L -12.5933,-2.35046 L -12.7055,-2.22038 L -12.8112,-2.08495
 L -12.9101,-1.9445 L -13.002,-1.79936 L -13.0867,-1.64989 L -13.164,-1.49644 L -13.2336,-1.33939 L -13.2954,-1.17911
 L -13.3493,-1.016 L -13.3951,-0.85043 L -13.4327,-0.682816 L -13.4621,-0.513556 L -13.4831,-0.34306 L -13.4958,-0.171737
 L -13.5,-0 L -13.4958,0.171737 L -13.4831,0.34306 L -13.4621,0.513556 L -13.4327,0.682816 L -13.3951,0.85043
 L -13.3493,1.016 L -13.2954,1.17911 L -13.2336,1.33939 L -13.164,1.49644 L -13.0867,1.64989 L -13.002,1.79936
 L -12.9101,1.9445 L -12.8112,2.08495 L -12.7055,2.22038 L -12.5933,2.35046 L -12.4749,2.47487 L -12.3505,2.59333
 L -12.2204,2.70554 L -12.0849,2.81123 L -11.9445,2.91014 L -11.7994,3.00205 L -11.6499,3.08672 L -11.4964,3.16396
 L -11.3394,3.23358 L -11.1791,3.2954 L -11.016,3.34929 L -10.8504,3.39511 L -10.6828,3.43275 L -10.5136,3.46212
 L -10.3431,3.48315 L -10.1717,3.49578 L -10,3.5 L 10,3.5 z
M -1.53115,2.3888 L -1.53115,-2.3886 L -0.88355,-2.3886 L -0.88355,1.85985 L 1.53055,1.85985 L 1.53055,2.3888
 z
" stroke="black" fill="lightgray" stroke-width="0.5"/>
</svg>
