<?xml version="1.0" standalone="no"?>
<!DOCTYPE svg PUBLIC "-//W3C//DTD SVG 1.1//EN" "http://www.w3.org/Graphics/SVG/1.1/DTD/svg11.dtd">
<svg width="30mm" height="19mm" viewBox="-15 -11 30 19" xmlns="http://www.w3.org/2000/svg" version="1.1">
<title>OpenSCAD Model</title>
<path d="
M -0.5622,-5 L 1.1244,-5 L 1.1244,-1.4 L 3.9354,-1.4 L 3.9354,-8 L 2.811,-8
 L 2.811,-9.2 L 1.6866,-9.2 L 1.6866,-10.4 L -1.1244,-10.4 L -1.1244,-9.2 L -2.2488,-9.2
 L -2.2488,-8 L -3.3732,-8 L -3.3732,-1.4 L -0.5622,-1.4 z
M -0.5622,-6.8 L -0.5622,-7.4 L 1.1244,-7.4 L 1.1244,-6.8 z
M 14.994,7.75466 L 14.9759,7.50991 L 14.9459,7.26635 L 14.9039,7.02455 L 14.8502,6.7851 L 14.7847,6.54858
 L 14.7077,6.31555 L 14.6194,6.08658 L 14.5199,5.86222 L 14.4096,5.64302 L 14.2886,5.42949 L 14.1573,5.22215
 L 14.016,5.0215 L 13.8651,4.82803 L 13.7048,4.64221 L 13.5355,4.46447 L 13.3578,4.29525 L 13.172,4.13495
 L 12.9785,3.98396 L 12.7779,3.84265 L 12.5705,3.71136 L 12.357,3.59039 L 12.1378,3.48005 L 11.9134,3.3806
 L 11.6844,3.29228 L 11.4514,3.2153 L 11.2149,3.14984 L 10.9755,3.09607 L 10.7337,3.05412 L 10.4901,3.02408
 L 10.2453,3.00602 L 10,3 L 10,0.312167 L 7.35128,0.638854 L 3.68007,0.909658 L 0,1
 L -3.68007,0.909658 L -7.35128,0.638854 L -10,0.312167 L -10,3 L -10.2453,3.00602 L -10.4901,3.02408
 L -10.7337,3.05412 L -10.9755,3.09607 L -11.2149,3.14984 L -11.4514,3.2153 L -11.6844,3.29228 L -11.9134,3.3806
 L -12.1378,3.48005 L -12.357,3.59039 L -12.5705,3.71136 L -12.7779,3.84265 L -12.9785,3.98396 L -13.172,4.13495
 L -13.3578,4.29525 L -13.5355,4.46447 L -13.7048,4.64221 L -13.8651,4.82803 L -14.016,5.0215 L -14.1573,5.22215
 L -14.2886,5.42949 L -14.4096,5.64302 L -14.5199,5.86222 L -14.6194,6.08658 L -14.7077,6.31555 L -14.7847,6.54858
 L -14.8502,6.7851 L -14.9039,7.02455 L -14.9459,7.26635 L -14.9759,7.50991 L -14.994,7.75466 L -15,8
 L 15,8 z
" stroke="black" fill="lightgray" stroke-width="0.5"/>
</svg>
