<?xml version="1.0" standalone="no"?>
<!DOCTYPE svg PUBLIC "-//W3C//DTD SVG 1.1//EN" "http://www.w3.org/Graphics/SVG/1.1/DTD/svg11.dtd">
<svg width="24mm" height="24mm" viewBox="-12 -12 24 24" xmlns="http://www.w3.org/2000/svg" version="1.1">
<title>OpenSCAD Model</title>
<path d="
M 4.27453,11.9994 L 4.29901,11.9976 L 4.32337,11.9946 L 4.34754,11.9904 L 4.37149,11.985 L 4.39514,11.9785
 L 4.41844,11.9708 L 4.44134,11.9619 L 4.46378,11.952 L 4.4857,11.941 L 4.50705,11.9289 L 4.52778,11.9157
 L 4.54785,11.9016 L 4.5672,11.8865 L 4.58578,11.8705 L 4.60355,11.8536 L 4.62047,11.8358 L 4.63651,11.8172
 L 4.6516,11.7978 L 4.66573,11.7778 L 4.67886,11.7571 L 4.69096,11.7357 L 4.70199,11.7138 L 4.71194,11.6913
 L 4.72077,11.6684 L 4.72847,11.6451 L 4.73501,11.6215 L 4.74039,11.5975 L 4.74459,11.5734 L 4.74759,11.549
 L 4.7494,11.5245 L 4.75,11.5 L 4.75,4.75 L 11.5,4.75 L 11.5245,4.7494 L 11.549,4.74759
 L 11.5734,4.74459 L 11.5975,4.74039 L 11.6215,4.73501 L 11.6451,4.72847 L 11.6684,4.72077 L 11.6913,4.71194
 L 11.7138,4.70199 L 11.7357,4.69096 L 11.7571,4.67886 L 11.7778,4.66573 L 11.7978,4.6516 L 11.8172,4.63651
 L 11.8358,4.62047 L 11.8536,4.60355 L 11.8705,4.58578 L 11.8865,4.5672 L 11.9016,4.54785 L 11.9157,4.52778
 L 11.9289,4.50705 L 11.941,4.4857 L 11.952,4.46378 L 11.9619,4.44134 L 11.9708,4.41844 L 11.9785,4.39514
 L 11.985,4.37149 L 11.9904,4.34754 L 11.9946,4.32337 L 11.9976,4.29901 L 11.9994,4.27453 L 12,4.25
 L 12,-4.25 L 11.9994,-4.27453 L 11.9976,-4.29901 L 11.9946,-4.32337 L 11.9904,-4.34754 L 11.985,-4.37149
 L 11.9785,-4.39514 L 11.9708,-4.41844 L 11.9619,-4.44134 L 11.952,-4.46378 L 11.941,-4.4857 L 11.9289,-4.50705
 L 11.9157,-4.52778 L 11.9016,-4.54785 L 11.8865,-4.5672 L 11.8705,-4.58578 L 11.8536,-4.60355 L 11.8358,-4.62047
 L 11.8172,-4.63651 L 11.7978,-4.6516 L 11.7778,-4.66573 L 11.7571,-4.67886 L 11.7357,-4.69096 L 11.7138,-4.70199
 L 11.6913,-4.71194 L 11.6684,-4.72077 L 11.6451,-4.72847 L 11.6215,-4.73501 L 11.5975,-4.74039 L 11.5734,-4.74459
 L 11.549,-4.74759 L 11.5245,-4.7494 L 11.5,-4.75 L 4.75,-4.75 L 4.75,-11.5 L 4.7494,-11.5245
 L 4.74759,-11.549 L 4.74459,-11.5734 L 4.74039,-11.5975 L 4.73501,-11.6215 L 4.72847,-11.6451 L 4.72077,-11.6684
 L 4.71194,-11.6913 L 4.70199,-11.7138 L 4.69096,-11.7357 L 4.67886,-11.7571 L 4.66573,-11.7778 L 4.6516,-11.7978
 L 4.63651,-11.8172 L 4.62047,-11.8358 L 4.60355,-11.8536 L 4.58578,-11.8705 L 4.5672,-11.8865 L 4.54785,-11.9016
 L 4.52778,-11.9157 L 4.50705,-11.9289 L 4.4857,-11.941 L 4.46378,-11.952 L 4.44134,-11.9619 L 4.41844,-11.9708
 L 4.39514,-11.9785 L 4.37149,-11.985 L 4.34754,-11.9904 L 4.32337,-11.9946 L 4.29901,-11.9976 L 4.27453,-11.9994
 L 4.25,-12 L -4.25,-12 L -4.27453,-11.9994 L -4.29901,-11.9976 L -4.32337,-11.9946 L -4.34754,-11.9904
 L -4.37149,-11.985 L -4.39514,-11.9785 L -4.41844,-11.9708 L -4.44134,-11.9619 L -4.46378,-11.952 L -4.4857,-11.941
 L -4.50705,-11.9289 L -4.52778,-11.9157 L -4.54785,-11.9016 L -4.5672,-11.8865 L -4.58578,-11.8705 L -4.60355,-11.8536
 L -4.62047,-11.8358 L -4.63651,-11.8172 L -4.6516,-11.7978 L -4.66573,-11.7778 L -4.67886,-11.7571 L -4.69096,-11.7357
 L -4.70199,-11.7138 L -4.71194,-11.6913 L -4.72077,-11.6684 L -4.72847,-11.6451 L -4.73501,-11.6215 L -4.74039,-11.5975
 L -4.74459,-11.5734 L -4.74759,-11.549 L -4.7494,-11.5245 L -4.75,-11.5 L -4.75,-4.75 L -11.5,-4.75
 L -11.5245,-4.7494 L -11.549,-4.74759 L -11.5734,-4.74459 L -11.5975,-4.74039 L -11.6215,-4.73501 L -11.6451,-4.72847
 L -11.6684,-4.72077 L -11.6913,-4.71194 L -11.7138,-4.70199 L -11.7357,-4.69096 L -11.7571,-4.67886 L -11.7778,-4.66573
 L -11.7978,-4.6516 L -11.8172,-4.63651 L -11.8358,-4.62047 L -11.8536,-4.60355 L -11.8705,-4.58578 L -11.8865,-4.5672
 L -11.9016,-4.54785 L -11.9157,-4.52778 L -11.9289,-4.50705 L -11.941,-4.4857 L -11.952,-4.46378 L -11.9619,-4.44134
 L -11.9708,-4.41844 L -11.9785,-4.39514 L -11.985,-4.37149 L -11.9904,-4.34754 L -11.9946,-4.32337 L -11.9976,-4.29901
 L -11.9994,-4.27453 L -12,-4.25 L -12,4.25 L -11.9994,4.27453 L -11.9976,4.29901 L -11.9946,4.32337
 L -11.9904,4.34754 L -11.985,4.37149 L -11.9785,4.39514 L -11.9708,4.41844 L -11.9619,4.44134 L -11.952,4.46378
 L -11.941,4.4857 L -11.9289,4.50705 L -11.9157,4.52778 L -11.9016,4.54785 L -11.8865,4.5672 L -11.8705,4.58578
 L -11.8536,4.60355 L -11.8358,4.62047 L -11.8172,4.63651 L -11.7978,4.6516 L -11.7778,4.66573 L -11.7571,4.67886
 L -11.7357,4.69096 L -11.7138,4.70199 L -11.6913,4.71194 L -11.6684,4.72077 L -11.6451,4.72847 L -11.6215,4.73501
 L -11.5975,4.74039 L -11.5734,4.74459 L -11.549,4.74759 L -11.5245,4.7494 L -11.5,4.75 L -4.75,4.75
 L -4.75,11.5 L -4.7494,11.5245 L -4.74759,11.549 L -4.74459,11.5734 L -4.74039,11.5975 L -4.73501,11.6215
 L -4.72847,11.6451 L -4.72077,11.6684 L -4.71194,11.6913 L -4.70199,11.7138 L -4.69096,11.7357 L -4.67886,11.7571
 L -4.66573,11.7778 L -4.6516,11.7978 L -4.63651,11.8172 L -4.62047,11.8358 L -4.60355,11.8536 L -4.58578,11.8705
 L -4.5672,11.8865 L -4.54785,11.9016 L -4.52778,11.9157 L -4.50705,11.9289 L -4.4857,11.941 L -4.46378,11.952
 L -4.44134,11.9619 L -4.41844,11.9708 L -4.39514,11.9785 L -4.37149,11.985 L -4.34754,11.9904 L -4.32337,11.9946
 L -4.29901,11.9976 L -4.27453,11.9994 L -4.25,12 L 4.25,12 z
M -5.02453,2.9994 L -5.04901,2.99759 L -5.07337,2.99459 L -5.09754,2.99039 L -5.12149,2.98501 L -5.14514,2.97847
 L -5.16844,2.97077 L -5.19134,2.96194 L -5.21378,2.95199 L -10.7138,0.451994 L -10.7357,0.44096 L -10.7571,0.428864
 L -10.7778,0.415734 L -10.7978,0.401604 L -10.8172,0.386505 L -10.8358,0.370475 L -10.8536,0.353553 L -10.8705,0.335779
 L -10.8865,0.317196 L -10.9016,0.297849 L -10.9157,0.277784 L -10.9289,0.257051 L -10.941,0.235698 L -10.952,0.213778
 L -10.9619,0.191341 L -10.9708,0.168445 L -10.9785,0.145142 L -10.985,0.12149 L -10.9904,0.0975447 L -10.9946,0.0733652
 L -10.9976,0.0490084 L -10.9994,0.0245333 L -11,-0 L -10.9994,-0.0245333 L -10.9976,-0.0490084 L -10.9946,-0.0733652
 L -10.9904,-0.0975447 L -10.985,-0.12149 L -10.9785,-0.145142 L -10.9708,-0.168445 L -10.9619,-0.191341 L -10.952,-0.213778
 L -10.941,-0.235698 L -10.9289,-0.257051 L -10.9157,-0.277784 L -10.9016,-0.297849 L -10.8865,-0.317196 L -10.8705,-0.335779
 L -10.8536,-0.353553 L -10.8358,-0.370475 L -10.8172,-0.386505 L -10.7978,-0.401604 L -10.7778,-0.415734 L -10.7571,-0.428864
 L -10.7357,-0.44096 L -10.7138,-0.451994 L -5.21378,-2.95199 L -5.19134,-2.96194 L -5.16844,-2.97077 L -5.14514,-2.97847
 L -5.12149,-2.98501 L -5.09754,-2.99039 L -5.07337,-2.99459 L -5.04901,-2.99759 L -5.02453,-2.9994 L -5,-3
 L -4.97547,-2.9994 L -4.95099,-2.99759 L -4.92663,-2.99459 L -4.90245,-2.99039 L -4.87851,-2.98501 L -4.85486,-2.97847
 L -4.83155,-2.97077 L -4.80866,-2.96194 L -4.78622,-2.95199 L -4.7643,-2.94096 L -4.74295,-2.92886 L -4.72221,-2.91573
 L -4.70215,-2.9016 L -4.6828,-2.88651 L -4.66422,-2.87047 L -4.64645,-2.85355 L -4.62952,-2.83578 L -4.61349,-2.8172
 L -4.5984,-2.79785 L -4.58426,-2.77778 L -4.57114,-2.75705 L -4.55904,-2.7357 L -4.54801,-2.71378 L -4.53806,-2.69134
 L -4.52923,-2.66844 L -4.52153,-2.64514 L -4.51498,-2.62149 L -4.50961,-2.59754 L -4.50541,-2.57337 L -4.50241,-2.54901
 L -4.5006,-2.52453 L -4.5,-2.5 L -4.5,2.5 L -4.5006,2.52453 L -4.50241,2.54901 L -4.50541,2.57337
 L -4.50961,2.59754 L -4.51498,2.62149 L -4.52153,2.64514 L -4.52923,2.66844 L -4.53806,2.69134 L -4.54801,2.71378
 L -4.55904,2.7357 L -4.57114,2.75705 L -4.58426,2.77778 L -4.5984,2.79785 L -4.61349,2.8172 L -4.62952,2.83578
 L -4.64645,2.85355 L -4.66422,2.87047 L -4.6828,2.88651 L -4.70215,2.9016 L -4.72221,2.91573 L -4.74295,2.92886
 L -4.7643,2.94096 L -4.78622,2.95199 L -4.80866,2.96194 L -4.83155,2.97077 L -4.85486,2.97847 L -4.87851,2.98501
 L -4.90245,2.99039 L -4.92663,2.99459 L -4.95099,2.99759 L -4.97547,2.9994 L -5,3 z
M -0.122668,2.49699 L -0.245043,2.48796 L -0.366826,2.47294 L -0.487725,2.45196 L -0.60745,2.42508 L -0.725711,2.39235
 L -0.842224,2.35386 L -0.956708,2.3097 L -1.06889,2.25997 L -1.17849,2.2048 L -1.28526,2.14432 L -1.38893,2.07867
 L -1.48925,2.00802 L -1.58598,1.93253 L -1.6789,1.85238 L -1.76777,1.76777 L -1.85238,1.6789 L -1.93253,1.58598
 L -2.00802,1.48925 L -2.07867,1.38893 L -2.14432,1.28526 L -2.2048,1.17849 L -2.25997,1.06889 L -2.3097,0.956708
 L -2.35386,0.842224 L -2.39235,0.725711 L -2.42508,0.60745 L -2.45196,0.487725 L -2.47294,0.366826 L -2.48796,0.245043
 L -2.49699,0.122668 L -2.5,-0 L -2.49699,-0.122668 L -2.48796,-0.245043 L -2.47294,-0.366826 L -2.45196,-0.487725
 L -2.42508,-0.60745 L -2.39235,-0.725711 L -2.35386,-0.842224 L -2.3097,-0.956708 L -2.25997,-1.06889 L -2.2048,-1.17849
 L -2.14432,-1.28526 L -2.07867,-1.38893 L -2.00802,-1.48925 L -1.93253,-1.58598 L -1.85238,-1.6789 L -1.76777,-1.76777
 L -1.6789,-1.85238 L -1.58598,-1.93253 L -1.48925,-2.00802 L -1.38893,-2.07867 L -1.28526,-2.14432 L -1.17849,-2.2048
 L -1.06889,-2.25997 L -0.956708,-2.3097 L -0.842224,-2.35386 L -0.725711,-2.39235 L -0.60745,-2.42508 L -0.487725,-2.45196
 L -0.366826,-2.47294 L -0.245043,-2.48796 L -0.122668,-2.49699 L 0,-2.5 L 0.122668,-2.49699 L 0.245043,-2.48796
 L 0.366826,-2.47294 L 0.487725,-2.45196 L 0.60745,-2.42508 L 0.725711,-2.39235 L 0.842224,-2.35386 L 0.956708,-2.3097
 L 1.06889,-2.25997 L 1.17849,-2.2048 L 1.28526,-2.14432 L 1.38893,-2.07867 L 1.48925,-2.00802 L 1.58598,-1.93253
 L 1.6789,-1.85238 L 1.76777,-1.76777 L 1.85238,-1.6789 L 1.93253,-1.58598 L 2.00802,-1.48925 L 2.07867,-1.38893
 L 2.14432,-1.28526 L 2.2048,-1.17849 L 2.25997,-1.06889 L 2.3097,-0.956708 L 2.35386,-0.842224 L 2.39235,-0.725711
 L 2.42508,-0.60745 L 2.45196,-0.487725 L 2.47294,-0.366826 L 2.48796,-0.245043 L 2.49699,-0.122668 L 2.5,-0
 L 2.49699,0.122668 L 2.48796,0.245043 L 2.47294,0.366826 L 2.45196,0.487725 L 2.42508,0.60745 L 2.39235,0.725711
 L 2.35386,0.842224 L 2.3097,0.956708 L 2.25997,1.06889 L 2.2048,1.17849 L 2.14432,1.28526 L 2.07867,1.38893
 L 2.00802,1.48925 L 1.93253,1.58598 L 1.85238,1.6789 L 1.76777,1.76777 L 1.6789,1.85238 L 1.58598,1.93253
 L 1.48925,2.00802 L 1.38893,2.07867 L 1.28526,2.14432 L 1.17849,2.2048 L 1.06889,2.25997 L 0.956708,2.3097
 L 0.842224,2.35386 L 0.725711,2.39235 L 0.60745,2.42508 L 0.487725,2.45196 L 0.366826,2.47294 L 0.245043,2.48796
 L 0.122668,2.49699 L 0,2.5 z
" stroke="black" fill="lightgray" stroke-width="0.5"/>
</svg>
