<?xml version="1.0" standalone="no"?>
<!DOCTYPE svg PUBLIC "-//W3C//DTD SVG 1.1//EN" "http://www.w3.org/Graphics/SVG/1.1/DTD/svg11.dtd">
<svg width="32mm" height="32mm" viewBox="-19 -19 40 40" xmlns="http://www.w3.org/2000/svg" version="1.1">
<title>OpenSCAD Model</title>
<path d="
M 13.2453,4.99398 L 13.4901,4.97592 L 13.7337,4.94588 L 13.9755,4.90393 L 14.2149,4.85016 L 14.4514,4.7847
 L 14.6844,4.70772 L 14.9134,4.6194 L 15.1378,4.51995 L 15.357,4.40961 L 15.5705,4.28864 L 15.7779,4.15735
 L 15.9785,4.01604 L 16.172,3.86505 L 16.3578,3.70476 L 16.5355,3.53553 L 16.7048,3.35779 L 16.8651,3.17197
 L 17.016,2.9785 L 17.1573,2.77785 L 17.2886,2.57051 L 17.4096,2.35698 L 17.5199,2.13778 L 17.6194,1.91342
 L 17.7077,1.68445 L 17.7847,1.45142 L 17.8502,1.2149 L 17.9039,0.975452 L 17.9459,0.733652 L 17.9759,0.490086
 L 17.994,0.245338 L 18,-0 L 17.994,-0.245338 L 17.9759,-0.490086 L 17.9459,-0.733652 L 17.9039,-0.975452
 L 17.8502,-1.2149 L 17.7847,-1.45142 L 17.7077,-1.68445 L 17.6194,-1.91342 L 17.5199,-2.13778 L 17.4096,-2.35698
 L 17.2886,-2.57051 L 17.1573,-2.77785 L 17.016,-2.9785 L 16.8651,-3.17197 L 16.7048,-3.35779 L 16.5355,-3.53553
 L 16.3578,-3.70476 L 16.172,-3.86505 L 15.9785,-4.01604 L 15.7779,-4.15735 L 15.5705,-4.28864 L 15.357,-4.40961
 L 15.1378,-4.51995 L 14.9134,-4.6194 L 14.6844,-4.70772 L 14.4514,-4.7847 L 14.2149,-4.85016 L 13.9755,-4.90393
 L 13.7337,-4.94588 L 13.4901,-4.97592 L 13.2453,-4.99398 L 13,-5 L 12.7547,-4.99398 L 12.5099,-4.97592
 L 12.2663,-4.94588 L 12.0245,-4.90393 L 11.7851,-4.85016 L 11.5486,-4.7847 L 11.3156,-4.70772 L 11.0866,-4.6194
 L 10.8622,-4.51995 L 10.643,-4.40961 L 10.4295,-4.28864 L 10.2221,-4.15735 L 10.0215,-4.01604 L 9.82803,-3.86505
 L 9.64221,-3.70476 L 9.46447,-3.53553 L 9.29524,-3.35779 L 9.13495,-3.17197 L 8.98396,-2.9785 L 8.84265,-2.77785
 L 8.71136,-2.57051 L 8.59039,-2.35698 L 8.48005,-2.13778 L 8.3806,-1.91342 L 8.29228,-1.68445 L 8.2153,-1.45142
 L 8.14984,-1.2149 L 8.09607,-0.975452 L 8.05412,-0.733652 L 8.02408,-0.490086 L 8.00602,-0.245338 L 8,-0
 L 8.00602,0.245338 L 8.02408,0.490086 L 8.05412,0.733652 L 8.09607,0.975452 L 8.14984,1.2149 L 8.2153,1.45142
 L 8.29228,1.68445 L 8.3806,1.91342 L 8.48005,2.13778 L 8.59039,2.35698 L 8.71136,2.57051 L 8.84265,2.77785
 L 8.98396,2.9785 L 9.13495,3.17197 L 9.29524,3.35779 L 9.46447,3.53553 L 9.64221,3.70476 L 9.82803,3.86505
 L 10.0215,4.01604 L 10.2221,4.15735 L 10.4295,4.28864 L 10.643,4.40961 L 10.8622,4.51995 L 11.0866,4.6194
 L 11.3156,4.70772 L 11.5486,4.7847 L 11.7851,4.85016 L 12.0245,4.90393 L 12.2663,4.94588 L 12.5099,4.97592
 L 12.7547,4.99398 L 13,5 z
" stroke="black" fill="lightgray" stroke-width="0.5"/>
<path d="
M 0.245338,17.994 L 0.490086,17.9759 L 0.733652,17.9459 L 0.975452,17.9039 L 1.2149,17.8502 L 1.45142,17.7847
 L 1.68445,17.7077 L 1.91342,17.6194 L 2.13778,17.5199 L 2.35698,17.4096 L 2.57051,17.2886 L 2.77785,17.1573
 L 2.9785,17.016 L 3.17197,16.8651 L 3.35779,16.7048 L 3.53553,16.5355 L 3.70476,16.3578 L 3.86505,16.172
 L 4.01604,15.9785 L 4.15735,15.7779 L 4.28864,15.5705 L 4.40961,15.357 L 4.51995,15.1378 L 4.6194,14.9134
 L 4.70772,14.6844 L 4.7847,14.4514 L 4.85016,14.2149 L 4.90393,13.9755 L 4.94588,13.7337 L 4.97592,13.4901
 L 4.99398,13.2453 L 5,13 L 4.99398,12.7547 L 4.97592,12.5099 L 4.94588,12.2663 L 4.90393,12.0245
 L 4.85016,11.7851 L 4.7847,11.5486 L 4.70772,11.3156 L 4.6194,11.0866 L 4.51995,10.8622 L 4.40961,10.643
 L 4.28864,10.4295 L 4.15735,10.2221 L 4.01604,10.0215 L 3.86505,9.82803 L 3.70476,9.64221 L 3.53553,9.46447
 L 3.35779,9.29524 L 3.17197,9.13495 L 2.9785,8.98396 L 2.77785,8.84265 L 2.57051,8.71136 L 2.35698,8.59039
 L 2.13778,8.48005 L 1.91342,8.3806 L 1.68445,8.29228 L 1.45142,8.2153 L 1.2149,8.14984 L 0.975452,8.09607
 L 0.733652,8.05412 L 0.490086,8.02408 L 0.245338,8.00602 L 0,8 L -0.245338,8.00602 L -0.490086,8.02408
 L -0.733652,8.05412 L -0.975452,8.09607 L -1.2149,8.14984 L -1.45142,8.2153 L -1.68445,8.29228 L -1.91342,8.3806
 L -2.13778,8.48005 L -2.35698,8.59039 L -2.57051,8.71136 L -2.77785,8.84265 L -2.9785,8.98396 L -3.17197,9.13495
 L -3.35779,9.29524 L -3.53553,9.46447 L -3.70476,9.64221 L -3.86505,9.82803 L -4.01604,10.0215 L -4.15735,10.2221
 L -4.28864,10.4295 L -4.40961,10.643 L -4.51995,10.8622 L -4.6194,11.0866 L -4.70772,11.3156 L -4.7847,11.5486
 L -4.85016,11.7851 L -4.90393,12.0245 L -4.94588,12.2663 L -4.97592,12.5099 L -4.99398,12.7547 L -5,13
 L -4.99398,13.2453 L -4.97592,13.4901 L -4.94588,13.7337 L -4.90393,13.9755 L -4.85016,14.2149 L -4.7847,14.4514
 L -4.70772,14.6844 L -4.6194,14.9134 L -4.51995,15.1378 L -4.40961,15.357 L -4.28864,15.5705 L -4.15735,15.7779
 L -4.01604,15.9785 L -3.86505,16.172 L -3.70476,16.3578 L -3.53553,16.5355 L -3.35779,16.7048 L -3.17197,16.8651
 L -2.9785,17.016 L -2.77785,17.1573 L -2.57051,17.2886 L -2.35698,17.4096 L -2.13778,17.5199 L -1.91342,17.6194
 L -1.68445,17.7077 L -1.45142,17.7847 L -1.2149,17.8502 L -0.975452,17.9039 L -0.733652,17.9459 L -0.490086,17.9759
 L -0.245338,17.994 L 0,18 z
" stroke="black" fill="lightgray" stroke-width="0.5"/>
<path d="
M 0.245338,-8.00602 L 0.490086,-8.02408 L 0.733652,-8.05412 L 0.975452,-8.09607 L 1.2149,-8.14984 L 1.45142,-8.2153
 L 1.68445,-8.29228 L 1.91342,-8.3806 L 2.13778,-8.48005 L 2.35698,-8.59039 L 2.57051,-8.71136 L 2.77785,-8.84265
 L 2.9785,-8.98396 L 3.17197,-9.13495 L 3.35779,-9.29524 L 3.53553,-9.46447 L 3.70476,-9.64221 L 3.86505,-9.82803
 L 4.01604,-10.0215 L 4.15735,-10.2221 L 4.28864,-10.4295 L 4.40961,-10.643 L 4.51995,-10.8622 L 4.6194,-11.0866
 L 4.70772,-11.3156 L 4.7847,-11.5486 L 4.85016,-11.7851 L 4.90393,-12.0245 L 4.94588,-12.2663 L 4.97592,-12.5099
 L 4.99398,-12.7547 L 5,-13 L 4.99398,-13.2453 L 4.97592,-13.4901 L 4.94588,-13.7337 L 4.90393,-13.9755
 L 4.85016,-14.2149 L 4.7847,-14.4514 L 4.70772,-14.6844 L 4.6194,-14.9134 L 4.51995,-15.1378 L 4.40961,-15.357
 L 4.28864,-15.5705 L 4.15735,-15.7779 L 4.01604,-15.9785 L 3.86505,-16.172 L 3.70476,-16.3578 L 3.53553,-16.5355
 L 3.35779,-16.7048 L 3.17197,-16.8651 L 2.9785,-17.016 L 2.77785,-17.1573 L 2.57051,-17.2886 L 2.35698,-17.4096
 L 2.13778,-17.5199 L 1.91342,-17.6194 L 1.68445,-17.7077 L 1.45142,-17.7847 L 1.2149,-17.8502 L 0.975452,-17.9039
 L 0.733652,-17.9459 L 0.490086,-17.9759 L 0.245338,-17.994 L 0,-18 L -0.245338,-17.994 L -0.490086,-17.9759
 L -0.733652,-17.9459 L -0.975452,-17.9039 L -1.2149,-17.8502 L -1.45142,-17.7847 L -1.68445,-17.7077 L -1.91342,-17.6194
 L -2.13778,-17.5199 L -2.35698,-17.4096 L -2.57051,-17.2886 L -2.77785,-17.1573 L -2.9785,-17.016 L -3.17197,-16.8651
 L -3.35779,-16.7048 L -3.53553,-16.5355 L -3.70476,-16.3578 L -3.86505,-16.172 L -4.01604,-15.9785 L -4.15735,-15.7779
 L -4.28864,-15.5705 L -4.40961,-15.357 L -4.51995,-15.1378 L -4.6194,-14.9134 L -4.70772,-14.6844 L -4.7847,-14.4514
 L -4.85016,-14.2149 L -4.90393,-13.9755 L -4.94588,-13.7337 L -4.97592,-13.4901 L -4.99398,-13.2453 L -5,-13
 L -4.99398,-12.7547 L -4.97592,-12.5099 L -4.94588,-12.2663 L -4.90393,-12.0245 L -4.85016,-11.7851 L -4.7847,-11.5486
 L -4.70772,-11.3156 L -4.6194,-11.0866 L -4.51995,-10.8622 L -4.40961,-10.643 L -4.28864,-10.4295 L -4.15735,-10.2221
 L -4.01604,-10.0215 L -3.86505,-9.82803 L -3.70476,-9.64221 L -3.53553,-9.46447 L -3.35779,-9.29524 L -3.17197,-9.13495
 L -2.9785,-8.98396 L -2.77785,-8.84265 L -2.57051,-8.71136 L -2.35698,-8.59039 L -2.13778,-8.48005 L -1.91342,-8.3806
 L -1.68445,-8.29228 L -1.45142,-8.2153 L -1.2149,-8.14984 L -0.975452,-8.09607 L -0.733652,-8.05412 L -0.490086,-8.02408
 L -0.245338,-8.00602 L 0,-8 z
" stroke="black" fill="lightgray" stroke-width="0.5"/>
<path d="
M -12.7547,4.99398 L -12.5099,4.97592 L -12.2663,4.94588 L -12.0245,4.90393 L -11.7851,4.85016 L -11.5486,4.7847
 L -11.3156,4.70772 L -11.0866,4.6194 L -10.8622,4.51995 L -10.643,4.40961 L -10.4295,4.28864 L -10.2221,4.15735
 L -10.0215,4.01604 L -9.82803,3.86505 L -9.64221,3.70476 L -9.46447,3.53553 L -9.29524,3.35779 L -9.13495,3.17197
 L -8.98396,2.9785 L -8.84265,2.77785 L -8.71136,2.57051 L -8.59039,2.35698 L -8.48005,2.13778 L -8.3806,1.91342
 L -8.29228,1.68445 L -8.2153,1.45142 L -8.14984,1.2149 L -8.09607,0.975452 L -8.05412,0.733652 L -8.02408,0.490086
 L -8.00602,0.245338 L -8,-0 L -8.00602,-0.245338 L -8.02408,-0.490086 L -8.05412,-0.733652 L -8.09607,-0.975452
 L -8.14984,-1.2149 L -8.2153,-1.45142 L -8.29228,-1.68445 L -8.3806,-1.91342 L -8.48005,-2.13778 L -8.59039,-2.35698
 L -8.71136,-2.57051 L -8.84265,-2.77785 L -8.98396,-2.9785 L -9.13495,-3.17197 L -9.29524,-3.35779 L -9.46447,-3.53553
 L -9.64221,-3.70476 L -9.82803,-3.86505 L -10.0215,-4.01604 L -10.2221,-4.15735 L -10.4295,-4.28864 L -10.643,-4.40961
 L -10.8622,-4.51995 L -11.0866,-4.6194 L -11.3156,-4.70772 L -11.5486,-4.7847 L -11.7851,-4.85016 L -12.0245,-4.90393
 L -12.2663,-4.94588 L -12.5099,-4.97592 L -12.7547,-4.99398 L -13,-5 L -13.2453,-4.99398 L -13.4901,-4.97592
 L -13.7337,-4.94588 L -13.9755,-4.90393 L -14.2149,-4.85016 L -14.4514,-4.7847 L -14.6844,-4.70772 L -14.9134,-4.6194
 L -15.1378,-4.51995 L -15.357,-4.40961 L -15.5705,-4.28864 L -15.7779,-4.15735 L -15.9785,-4.01604 L -16.172,-3.86505
 L -16.3578,-3.70476 L -16.5355,-3.53553 L -16.7048,-3.35779 L -16.8651,-3.17197 L -17.016,-2.9785 L -17.1573,-2.77785
 L -17.2886,-2.57051 L -17.4096,-2.35698 L -17.5199,-2.13778 L -17.6194,-1.91342 L -17.7077,-1.68445 L -17.7847,-1.45142
 L -17.8502,-1.2149 L -17.9039,-0.975452 L -17.9459,-0.733652 L -17.9759,-0.490086 L -17.994,-0.245338 L -18,-0
 L -17.994,0.245338 L -17.9759,0.490086 L -17.9459,0.733652 L -17.9039,0.975452 L -17.8502,1.2149 L -17.7847,1.45142
 L -17.7077,1.68445 L -17.6194,1.91342 L -17.5199,2.13778 L -17.4096,2.35698 L -17.2886,2.57051 L -17.1573,2.77785
 L -17.016,2.9785 L -16.8651,3.17197 L -16.7048,3.35779 L -16.5355,3.53553 L -16.3578,3.70476 L -16.172,3.86505
 L -15.9785,4.01604 L -15.7779,4.15735 L -15.5705,4.28864 L -15.357,4.40961 L -15.1378,4.51995 L -14.9134,4.6194
 L -14.6844,4.70772 L -14.4514,4.7847 L -14.2149,4.85016 L -13.9755,4.90393 L -13.7337,4.94588 L -13.4901,4.97592
 L -13.2453,4.99398 L -13,5 z
" stroke="black" fill="green" stroke-width="0.5"/>

</svg>
