<?xml version="1.0" standalone="no"?>
<!DOCTYPE svg PUBLIC "-//W3C//DTD SVG 1.1//EN" "http://www.w3.org/Graphics/SVG/1.1/DTD/svg11.dtd">
<svg width="28mm" height="8mm" viewBox="-14 -4 28 8" xmlns="http://www.w3.org/2000/svg" version="1.1">
<title>OpenSCAD Model</title>
<path d="
M 10.1717,3.49578 L 10.3431,3.48315 L 10.5136,3.46212 L 10.6828,3.43275 L 10.8504,3.39511 L 11.016,3.34929
 L 11.1791,3.2954 L 11.3394,3.23358 L 11.4964,3.16396 L 11.6499,3.08672 L 11.7994,3.00205 L 11.9445,2.91014
 L 12.0849,2.81123 L 12.2204,2.70554 L 12.3505,2.59333 L 12.4749,2.47487 L 12.5933,2.35046 L 12.7055,2.22038
 L 12.8112,2.08495 L 12.9101,1.9445 L 13.002,1.79936 L 13.0867,1.64989 L 13.164,1.49644 L 13.2336,1.33939
 L 13.2954,1.17911 L 13.3493,1.016 L 13.3951,0.85043 L 13.4327,0.682816 L 13.4621,0.513556 L 13.4831,0.34306
 L 13.4958,0.171737 L 13.5,-0 L 13.4958,-0.171737 L 13.4831,-0.34306 L 13.4621,-0.513556 L 13.4327,-0.682816
 L 13.3951,-0.85043 L 13.3493,-1.016 L 13.2954,-1.17911 L 13.2336,-1.33939 L 13.164,-1.49644 L 13.0867,-1.64989
 L 13.002,-1.79936 L 12.9101,-1.9445 L 12.8112,-2.08495 L 12.7055,-2.22038 L 12.5933,-2.35046 L 12.4749,-2.47487
 L 12.3505,-2.59333 L 12.2204,-2.70554 L 12.0849,-2.81123 L 11.9445,-2.91014 L 11.7994,-3.00205 L 11.6499,-3.08672
 L 11.4964,-3.16396 L 11.3394,-3.23358 L 11.1791,-3.2954 L 11.016,-3.34929 L 10.8504,-3.39511 L 10.6828,-3.43275
 L 10.5136,-3.46212 L 10.3431,-3.48315 L 10.1717,-3.49578 L 10,-3.5 L -10,-3.5 L -10.1717,-3.49578
 L -10.3431,-3.48315 L -10.5136,-3.46212 L -10.6828,-3.43275 L -10.8504,-3.39511 L -11.016,-3.34929 L -11.1791,-3.2954
 L -11.3394,-3.23358 L -11.4964,-3.16396 L -11.6499,-3.08672 L -11.7994,-3.00205 L -11.9445,-2.91014 L -12.0849,-2.81123
 L -12.2204,-2.70554 L -12.3505,-2.59333 L -12.4749,-2.47487 L -12.5933,-2.35046 L -12.7055,-2.22038 L -12.8112,-2.08495
 L -12.9101,-1.9445 L -13.002,-1.79936 L -13.0867,-1.64989 L -13.164,-1.49644 L -13.2336,-1.33939 L -13.2954,-1.17911
 L -13.3493,-1.016 L -13.3951,-0.85043 L -13.4327,-0.682816 L -13.4621,-0.513556 L -13.4831,-0.34306 L -13.4958,-0.171737
 L -13.5,-0 L -13.4958,0.171737 L -13.4831,0.34306 L -13.4621,0.513556 L -13.4327,0.682816 L -13.3951,0.85043
 L -13.3493,1.016 L -13.2954,1.17911 L -13.2336,1.33939 L -13.164,1.49644 L -13.0867,1.64989 L -13.002,1.79936
 L -12.9101,1.9445 L -12.8112,2.08495 L -12.7055,2.22038 L -12.5933,2.35046 L -12.4749,2.47487 L -12.3505,2.59333
 L -12.2204,2.70554 L -12.0849,2.81123 L -11.9445,2.91014 L -11.7994,3.00205 L -11.6499,3.08672 L -11.4964,3.16396
 L -11.3394,3.23358 L -11.1791,3.2954 L -11.016,3.34929 L -10.8504,3.39511 L -10.6828,3.43275 L -10.5136,3.46212
 L -10.3431,3.48315 L -10.1717,3.49578 L -10,3.5 L 10,3.5 z
M -2.06235,2.3888 L -2.06235,-2.3886 L 0.185599,-2.3886 L 0.279267,-2.38735 L 0.370389,-2.3836 L 0.458964,-2.37735
 L 0.544993,-2.36861 L 0.628476,-2.35736 L 0.709412,-2.34362 L 0.787802,-2.32738 L 0.863646,-2.30863 L 0.936942,-2.28739
 L 1.00769,-2.26365 L 1.0759,-2.23741 L 1.14155,-2.20867 L 1.20467,-2.17744 L 1.26523,-2.1437 L 1.32325,-2.10747
 L 1.37872,-2.06873 L 1.43165,-2.0275 L 1.48179,-1.98404 L 1.52889,-1.93862 L 1.57295,-1.89123 L 1.61397,-1.84189
 L 1.65196,-1.79059 L 1.6869,-1.73733 L 1.71881,-1.68211 L 1.74768,-1.62494 L 1.77351,-1.5658 L 1.7963,-1.5047
 L 1.81605,-1.44164 L 1.83276,-1.37663 L 1.84644,-1.30965 L 1.85707,-1.24071 L 1.86467,-1.16982 L 1.86923,-1.09696
 L 1.87075,-1.02215 L 1.86968,-0.960113 L 1.86646,-0.899248 L 1.86109,-0.839558 L 1.85357,-0.781039 L 1.84391,-0.723695
 L 1.8321,-0.667522 L 1.81815,-0.612524 L 1.80204,-0.558698 L 1.78379,-0.506044 L 1.7634,-0.454565 L 1.74085,-0.404258
 L 1.71616,-0.355124 L 1.68932,-0.307163 L 1.66034,-0.260375 L 1.62921,-0.21476 L 1.59593,-0.170319 L 1.5605,-0.127049
 L 1.52318,-0.0852938 L 1.48424,-0.045392 L 1.44366,-0.00734425 L 1.40146,0.0288496 L 1.35762,0.0631905 L 1.31215,0.0956783
 L 1.26505,0.126312 L 1.21632,0.155092 L 1.16597,0.182018 L 1.11398,0.207091 L 1.06036,0.23031 L 1.00511,0.251677
 L 0.948227,0.271188 L 0.889715,0.288846 L 0.829574,0.304651 L 0.767802,0.318603 L 0.704399,0.3307 L 2.06065,2.3888
 L 1.3147,2.3888 L 0.0737,0.405299 L -1.41475,0.405299 L -1.41475,2.3888 z
M 0.207731,-0.107527 L 0.265554,-0.110008 L 0.321772,-0.114144 L 0.37638,-0.119934 L 0.42938,-0.127378 L 0.480774,-0.136477
 L 0.53056,-0.14723 L 0.578738,-0.159638 L 0.625309,-0.173699 L 0.670272,-0.189416 L 0.713627,-0.206786 L 0.755375,-0.225811
 L 0.795515,-0.24649 L 0.834047,-0.268824 L 0.870973,-0.292811 L 0.90629,-0.318453 L 0.94,-0.34575 L 0.971943,-0.374536
 L 1.00195,-0.404648 L 1.03002,-0.436086 L 1.05616,-0.468848 L 1.08036,-0.502937 L 1.10262,-0.538352 L 1.12295,-0.575091
 L 1.14134,-0.613157 L 1.1578,-0.652548 L 1.17232,-0.693265 L 1.1849,-0.735308 L 1.19555,-0.778675 L 1.20426,-0.823369
 L 1.21104,-0.869389 L 1.21588,-0.916733 L 1.21878,-0.965404 L 1.21975,-1.0154 L 1.21877,-1.06378 L 1.21583,-1.11078
 L 1.21093,-1.15642 L 1.20407,-1.20068 L 1.19526,-1.24356 L 1.18448,-1.28508 L 1.17174,-1.32522 L 1.15705,-1.36399
 L 1.14039,-1.40139 L 1.12177,-1.43741 L 1.1012,-1.47206 L 1.07866,-1.50534 L 1.05417,-1.53725 L 1.02772,-1.56778
 L 0.999304,-1.59695 L 0.968931,-1.62473 L 0.9366,-1.65115 L 0.902431,-1.67612 L 0.866539,-1.69958 L 0.828921,-1.72153
 L 0.789579,-1.74196 L 0.748513,-1.76088 L 0.705722,-1.77828 L 0.661206,-1.79418 L 0.614966,-1.80855 L 0.567001,-1.82142
 L 0.517312,-1.83277 L 0.465899,-1.84261 L 0.41276,-1.85093 L 0.357897,-1.85774 L 0.30131,-1.86304 L 0.242997,-1.86682
 L 0.182961,-1.86909 L 0.1212,-1.86985 L -1.41475,-1.86985 L -1.41475,-0.1067 L 0.148299,-0.1067 z
" stroke="black" fill="lightgray" stroke-width="0.5"/>
</svg>
